<svg width="218" height="69" viewBox="0 0 218 69" fill="none" xmlns="http://www.w3.org/2000/svg">
<g id="Logo Variants">
<g id="Group">
<path id="Vector" d="M3.26196 10.3601L13.2061 7.16406V56.2663H3.26196V10.3601Z" fill="#31374A"/>
<path id="Vector_2" d="M19.9917 23.0674H29.9359V27.2194C31.323 24.3233 35.0064 22.3457 39.552 22.3457C47.781 22.3457 52.3267 27.5474 52.3267 36.1138V56.2646H42.3825V37.2948C42.3825 33.5458 40.3393 31.1089 36.3935 31.1089C32.6445 31.1089 29.9359 33.8082 29.9359 37.6322V56.274H19.9917V23.0674Z" fill="#31374A"/>
<path id="Vector_3" d="M58.5218 10.3601L68.138 7.16406V23.0691H75.5141V32.0292H68.138V40.9236C68.138 45.6005 70.0499 47.3156 74.3238 47.3156C74.455 47.3156 74.8486 47.3156 74.8486 47.3156V56.2757C74.8486 56.2757 73.0679 56.2757 71.9526 56.2757C66.226 56.2757 58.5125 54.6918 58.5125 42.442V10.3601H58.5218Z" fill="#31374A"/>
<path id="Vector_4" d="M79.9939 23.0674H89.9381V27.613C91.4564 24.2577 95.0086 22.3457 99.5542 22.3457C100.473 22.3457 101.597 22.4769 102.122 22.5425V31.8306C101.204 31.6338 100.079 31.5026 98.8325 31.5026C93.2372 31.5026 89.9381 34.7267 89.9381 40.1346V56.274H79.9939V23.0674Z" fill="#31374A"/>
<path id="Vector_5" d="M107.783 23.0691L117.728 19.873V56.2663H107.783V23.0691Z" fill="#31374A"/>
<path id="Vector_6" d="M123.857 23.069H133.801V27.4178C134.72 24.5873 138.609 22.4785 143.614 22.4785C153.034 22.4785 160.082 30.0515 160.082 39.6676C160.082 49.2181 153.034 56.8567 143.614 56.8567C138.609 56.8567 134.72 54.8135 133.801 51.9174V68.9753H123.857V23.069ZM141.834 47.8966C146.51 47.8966 150.194 44.2695 150.194 39.6676C150.194 35.0563 146.501 31.4386 141.834 31.4386C137.025 31.4386 133.202 35.0657 133.202 39.6676C133.202 44.2788 137.025 47.8966 141.834 47.8966Z" fill="#31374A"/>
<path id="Vector_7" d="M165.283 23.0691L175.228 19.873V56.2663H165.283V23.0691Z" fill="#31374A"/>
<path id="Vector_8" d="M197.028 22.4787C202.098 22.4787 205.988 24.5218 206.907 27.4179V10.3601L216.785 7.16406V56.2663H206.907V51.9175C205.988 54.748 202.098 56.8568 197.028 56.8568C187.609 56.8568 180.561 49.2839 180.561 39.6677C180.561 30.1172 187.609 22.4787 197.028 22.4787ZM198.865 47.8967C203.607 47.8967 207.497 44.2696 207.497 39.6677C207.497 35.0565 203.607 31.4387 198.865 31.4387C194.122 31.4387 190.505 35.0659 190.505 39.6677C190.505 44.279 194.132 47.8967 198.865 47.8967Z" fill="#31374A"/>
<path id="Vector_9" d="M112.76 15.2442C115.871 15.2442 118.393 12.7223 118.393 9.61136C118.393 6.50042 115.871 3.97852 112.76 3.97852C109.649 3.97852 107.127 6.50042 107.127 9.61136C107.127 12.7223 109.649 15.2442 112.76 15.2442Z" fill="#AD89E8"/>
<path id="Vector_10" d="M131.702 13.6494C133.933 13.6494 135.742 11.8408 135.742 9.60984C135.742 7.37887 133.933 5.57031 131.702 5.57031C129.471 5.57031 127.663 7.37887 127.663 9.60984C127.663 11.8408 129.471 13.6494 131.702 13.6494Z" fill="#CC7BCC"/>
<path id="Vector_11" d="M150.644 13.6494C152.875 13.6494 154.683 11.8408 154.683 9.60984C154.683 7.37887 152.875 5.57031 150.644 5.57031C148.413 5.57031 146.604 7.37887 146.604 9.60984C146.604 11.8408 148.413 13.6494 150.644 13.6494Z" fill="#EBA048"/>
<path id="Vector_12" d="M173.578 5.6265C171.375 3.42398 167.814 3.42398 165.611 5.6265C163.409 7.82903 163.409 11.3906 165.611 13.5931L169.595 17.5764L173.578 13.5931C175.771 11.3906 175.771 7.82903 173.578 5.6265Z" fill="#F47F22"/>
</g>
</g>
</svg>
