<svg width="101" height="100" viewBox="0 0 101 100" fill="none" xmlns="http://www.w3.org/2000/svg">
<g id="best-employee 1">
<path id="Vector" d="M56.9167 68.75H53.7917C53.7917 69.5788 53.4624 70.3737 52.8764 70.9597C52.2903 71.5458 51.4955 71.875 50.6667 71.875C49.8379 71.875 49.043 71.5458 48.4569 70.9597C47.8709 70.3737 47.5417 69.5788 47.5417 68.75H44.4167C44.4167 70.4076 45.0751 71.9973 46.2472 73.1694C47.4193 74.3415 49.0091 75 50.6667 75C52.3243 75 53.914 74.3415 55.0861 73.1694C56.2582 71.9973 56.9167 70.4076 56.9167 68.75Z" fill="#31374A"/>
<path id="Vector_2" d="M77.9791 87.2704L60.0416 81.6641V78.9376C62.6351 77.5979 64.9097 75.7155 66.7107 73.4184C68.5117 71.1213 69.797 68.4632 70.4791 65.6251H70.9791C72.305 65.628 73.5973 65.2084 74.6685 64.4271C75.7397 63.6459 76.5341 62.5436 76.9364 61.2802C77.3387 60.0169 77.328 58.6582 76.9058 57.4014C76.4836 56.1446 75.6719 55.055 74.5885 54.2907L75.5604 44.7594C75.9607 40.8349 75.2185 36.8783 73.4229 33.3657C71.6379 29.8826 68.9204 26.9639 65.5735 24.9349C62.2266 22.906 58.3819 21.8467 54.4682 21.8751H46.8651C42.9509 21.8471 39.1058 22.9071 35.7589 24.9369C32.412 26.9667 29.6948 29.8864 27.9104 33.3704C26.1148 36.883 25.3726 40.8396 25.7729 44.7641L26.7448 54.2954C25.6634 55.0603 24.8536 56.1497 24.4328 57.4056C24.0119 58.6615 24.0017 60.0189 24.4038 61.2809C24.8059 62.543 25.5993 63.6443 26.6691 64.4254C27.7389 65.2064 29.0296 65.6266 30.3542 65.6251H30.8541C31.5363 68.4632 32.8216 71.1213 34.6226 73.4184C36.4236 75.7155 38.6982 77.5979 41.2916 78.9376V81.6641L23.3542 87.2704C21.3033 87.9035 19.51 89.1785 18.2385 90.9077C16.967 92.6369 16.2845 94.7287 16.2917 96.8751C16.2917 97.2895 16.4563 97.6869 16.7493 97.9799C17.0423 98.2729 17.4397 98.4376 17.8542 98.4376H83.4791C83.8935 98.4376 84.291 98.2729 84.584 97.9799C84.877 97.6869 85.0416 97.2895 85.0416 96.8751C85.0488 94.7287 84.3663 92.6369 83.0948 90.9077C81.8233 89.1785 80.03 87.9035 77.9791 87.2704ZM61.501 85.3954L56.6041 90.286L53.5448 88.7579L58.8026 84.5516L61.501 85.3954ZM70.9791 62.5001H70.9385C71.0026 61.3017 70.9729 60.1001 70.8495 58.9063L70.5823 56.2501H70.9791C71.8079 56.2501 72.6028 56.5793 73.1889 57.1654C73.7749 57.7514 74.1041 58.5463 74.1041 59.3751C74.1041 60.2039 73.7749 60.9987 73.1889 61.5848C72.6028 62.1708 71.8079 62.5001 70.9791 62.5001ZM27.2292 59.3751C27.2292 58.5463 27.5584 57.7514 28.1444 57.1654C28.7305 56.5793 29.5253 56.2501 30.3542 56.2501H30.751L30.4838 58.9063C30.3604 60.1001 30.3307 61.3017 30.3948 62.5001H30.3542C29.5253 62.5001 28.7305 62.1708 28.1444 61.5848C27.5584 60.9987 27.2292 60.2039 27.2292 59.3751ZM31.8651 45.1563L31.0651 53.1251H30.3542C30.1542 53.1251 29.9667 53.1657 29.7729 53.1844L28.8807 44.4469C28.5415 41.1208 29.1709 37.7675 30.6932 34.7907C32.2174 31.821 34.5366 29.333 37.3921 27.6042C40.2476 25.8755 43.5272 24.9739 46.8651 25.0001H54.4682C57.806 24.9737 61.0855 25.8751 63.9408 27.6039C66.7961 29.3327 69.1149 31.8209 70.6385 34.7907C72.1619 37.7671 72.7919 41.1206 72.4526 44.4469L71.5604 53.1844C71.3667 53.1657 71.1791 53.1251 70.9791 53.1251H70.2682L69.4682 45.1563C69.4344 44.8196 69.2921 44.5029 69.0628 44.254C68.8334 44.005 68.5295 43.8373 68.1966 43.776C67.8638 43.7147 67.52 43.7631 67.217 43.9139C66.9141 44.0648 66.6683 44.31 66.5167 44.6126L64.2448 49.1438L57.912 44.0954C57.7301 43.9505 57.5181 43.848 57.2916 43.7955C57.065 43.7429 56.8296 43.7416 56.6025 43.7916C56.3753 43.8416 56.1622 43.9417 55.9787 44.0845C55.7952 44.2273 55.6459 44.4094 55.5416 44.6173L53.1979 49.2891L45.2604 44.0157C45.0521 43.8774 44.8136 43.7912 44.565 43.7642C44.3165 43.7372 44.065 43.7702 43.8319 43.8605C43.5987 43.9509 43.3907 44.0958 43.2251 44.2832C43.0596 44.4706 42.9415 44.695 42.8807 44.9376L41.8495 49.0423L34.2838 44.0157C34.0595 43.8668 33.8005 43.7784 33.5319 43.759C33.2634 43.7397 32.9944 43.7901 32.751 43.9053C32.5077 44.0206 32.2982 44.1967 32.143 44.4167C31.9878 44.6367 31.8921 44.8931 31.8651 45.161V45.1563ZM33.7651 64.4016C33.4452 62.6943 33.3877 60.9482 33.5948 59.2235L34.7151 48.0501L41.9635 52.8641C42.1718 53.0024 42.4103 53.0887 42.6589 53.1157C42.9075 53.1427 43.1589 53.1096 43.392 53.0193C43.6252 52.929 43.8333 52.784 43.9988 52.5966C44.1643 52.4092 44.2824 52.1848 44.3432 51.9423L45.3729 47.8376L52.9385 52.8641C53.1228 52.9864 53.3309 53.0682 53.5491 53.1041C53.7673 53.14 53.9907 53.1292 54.2044 53.0723C54.4181 53.0154 54.6173 52.9139 54.7889 52.7743C54.9604 52.6347 55.1004 52.4603 55.1995 52.2626L57.4698 47.7313L63.8041 52.7798C63.9861 52.9247 64.198 53.0271 64.4246 53.0797C64.6511 53.1322 64.8865 53.1336 65.1136 53.0836C65.3408 53.0335 65.5539 52.9335 65.7374 52.7906C65.9209 52.6478 66.0702 52.4658 66.1745 52.2579L66.8963 50.8188L67.7385 59.2188C67.9456 60.9435 67.8881 62.6896 67.5682 64.3969C66.7535 68.2763 64.629 71.7572 61.5515 74.2556C58.4739 76.7539 54.6306 78.1175 50.6666 78.1175C46.7027 78.1175 42.8594 76.7539 39.7818 74.2556C36.7043 71.7572 34.5798 68.2763 33.7651 64.3969V64.4016ZM50.6666 81.2501C52.7898 81.2448 54.8989 80.9058 56.9166 80.2454V82.061L50.6666 87.061L44.4166 82.061V80.2454C46.4344 80.9058 48.5435 81.2448 50.6666 81.2501ZM42.526 84.5516L47.7838 88.7579L44.7245 90.286L39.8323 85.3938L42.526 84.5516ZM19.5917 95.3126C19.8607 94.1321 20.4354 93.0431 21.2581 92.1548C22.0808 91.2665 23.1227 90.6102 24.2792 90.2516L36.4667 86.4454L43.3135 93.2923C43.5453 93.5242 43.8441 93.6774 44.1677 93.7301C44.4913 93.7828 44.8233 93.7324 45.1166 93.586L50.6666 90.8094L56.2182 93.5938C56.5116 93.7402 56.8436 93.7906 57.1672 93.7379C57.4908 93.6852 57.7896 93.532 58.0213 93.3001L64.8682 86.4532L77.0557 90.2594C78.2122 90.618 79.254 91.2743 80.0768 92.1626C80.8995 93.0509 81.4742 94.1399 81.7432 95.3204L19.5917 95.3126Z" fill="#31374A"/>
<path id="Vector 20" d="M46.3656 7.91138L50.016 6.14526L54.9617 7.91138C54.6869 9.20671 53.9725 12.2213 53.3131 13.9169C52.6537 15.6126 49.6627 14.231 48.2497 13.3282L46.3656 7.91138Z" fill="#A279E5"/>
<path id="Vector 21" d="M65.1156 11.1438L68.766 9.37769L73.7117 11.1438C73.4369 12.4391 72.7225 15.4537 72.0631 17.1494C71.4037 18.845 68.4127 17.4634 66.9997 16.5606L65.1156 11.1438Z" fill="#A279E5"/>
<path id="Vector 22" d="M80.7436 23.6406L84.394 21.8745L89.3397 23.6406C89.0649 24.936 88.3506 27.9505 87.6911 29.6462C87.0317 31.3419 84.0408 29.9602 82.6277 29.0574L80.7436 23.6406Z" fill="#A279E5"/>
<path id="Vector_3" d="M58.3979 7.40321C58.3064 7.13026 58.1412 6.88791 57.9206 6.7029C57.7 6.51789 57.4326 6.39741 57.1479 6.35478L53.6542 5.82196L52.076 2.46103C51.9499 2.19259 51.7499 1.96562 51.4995 1.80664C51.2491 1.64766 50.9586 1.56323 50.662 1.56323C50.3654 1.56323 50.0749 1.64766 49.8245 1.80664C49.5741 1.96562 49.3741 2.19259 49.2479 2.46103L47.6698 5.82196L44.176 6.35478C43.892 6.39807 43.6254 6.51884 43.4056 6.70381C43.1857 6.88878 43.0211 7.13078 42.9299 7.40322C42.8386 7.67566 42.8243 7.96798 42.8884 8.24805C42.9525 8.52812 43.0926 8.78509 43.2932 8.99071L45.8682 11.6282L45.2573 15.3782C45.2101 15.6677 45.2453 15.9646 45.3589 16.235C45.4725 16.5053 45.6599 16.7383 45.8997 16.9072C46.1395 17.0761 46.422 17.174 46.7148 17.1899C47.0077 17.2058 47.2991 17.1389 47.5557 16.997L50.6667 15.2751L53.7729 16.9938C54.0295 17.1358 54.321 17.2027 54.6138 17.1868C54.9067 17.1709 55.1891 17.0729 55.4289 16.9041C55.6687 16.7352 55.8561 16.5022 55.9697 16.2318C56.0833 15.9615 56.1185 15.6645 56.0713 15.3751L55.4604 11.6251L58.0354 8.98759C58.2354 8.78217 58.3749 8.52569 58.4389 8.24625C58.5028 7.9668 58.4886 7.67515 58.3979 7.40321ZM52.6729 10.011C52.502 10.1862 52.3747 10.3991 52.3011 10.6325C52.2276 10.8659 52.2099 11.1133 52.2495 11.3548L52.4698 12.7017L51.4229 12.1235C51.1914 11.9955 50.9312 11.9283 50.6667 11.9283C50.4021 11.9283 50.1419 11.9955 49.9104 12.1235L48.8635 12.7017L49.0838 11.3548C49.1234 11.1133 49.1057 10.8659 49.0322 10.6325C48.9586 10.3991 48.8313 10.1862 48.6604 10.011L47.6588 8.98603L48.9713 8.78446C49.2248 8.74576 49.4649 8.64527 49.6703 8.49186C49.8758 8.33844 50.0404 8.13682 50.1495 7.90478L50.6667 6.81103L51.1838 7.91259C51.293 8.14463 51.4575 8.34625 51.663 8.49967C51.8684 8.65308 52.1085 8.75357 52.362 8.79228L53.6745 8.99384L52.6729 10.011Z" fill="#31374A"/>
<path id="Vector 19" d="M27.6156 10.3843L31.266 8.61816L36.2117 10.3843C35.9369 11.6796 35.2225 14.6942 34.5631 16.3898C33.9037 18.0855 30.9127 16.7039 29.4997 15.8011L27.6156 10.3843Z" fill="#A279E5"/>
<path id="Vector_4" d="M77.1479 10.5282C77.0564 10.2553 76.8912 10.0129 76.6706 9.8279C76.45 9.64289 76.1826 9.52241 75.8979 9.47978L72.4042 8.94696L70.826 5.58603C70.6999 5.31759 70.4999 5.09062 70.2495 4.93164C69.9991 4.77266 69.7086 4.68823 69.412 4.68823C69.1154 4.68823 68.8249 4.77266 68.5745 4.93164C68.3241 5.09062 68.1241 5.31759 67.9979 5.58603L66.4198 8.94696L62.926 9.47978C62.642 9.52307 62.3754 9.64384 62.1556 9.82881C61.9357 10.0138 61.7711 10.2558 61.6799 10.5282C61.5886 10.8007 61.5743 11.093 61.6384 11.373C61.7025 11.6531 61.8426 11.9101 62.0432 12.1157L64.6182 14.7532L64.0073 18.5032C63.9601 18.7927 63.9953 19.0896 64.1089 19.36C64.2225 19.6303 64.4099 19.8633 64.6497 20.0322C64.8895 20.2011 65.172 20.299 65.4648 20.3149C65.7577 20.3308 66.0491 20.2639 66.3057 20.122L69.4167 18.4001L72.5229 20.1188C72.7795 20.2608 73.071 20.3277 73.3638 20.3118C73.6567 20.2959 73.9391 20.1979 74.1789 20.0291C74.4187 19.8602 74.6061 19.6272 74.7197 19.3568C74.8333 19.0865 74.8685 18.7895 74.8213 18.5001L74.2104 14.7501L76.7854 12.1126C76.9854 11.9072 77.1249 11.6507 77.1889 11.3712C77.2528 11.0918 77.2386 10.8001 77.1479 10.5282ZM71.4229 13.136C71.252 13.3112 71.1247 13.5241 71.0511 13.7575C70.9776 13.9909 70.9599 14.2383 70.9995 14.4798L71.2198 15.8267L70.1729 15.2485C69.9414 15.1205 69.6812 15.0533 69.4167 15.0533C69.1521 15.0533 68.8919 15.1205 68.6604 15.2485L67.6135 15.8267L67.8338 14.4798C67.8734 14.2383 67.8557 13.9909 67.7822 13.7575C67.7086 13.5241 67.5813 13.3112 67.4104 13.136L66.4088 12.111L67.7213 11.9095C67.9748 11.8708 68.2149 11.7703 68.4203 11.6169C68.6258 11.4634 68.7904 11.2618 68.8995 11.0298L69.4167 9.93603L69.9338 11.0376C70.043 11.2696 70.2075 11.4713 70.413 11.6247C70.6184 11.7781 70.8585 11.8786 71.112 11.9173L72.4245 12.1188L71.4229 13.136Z" fill="#31374A"/>
<path id="Vector_5" d="M39.6479 10.5282C39.5564 10.2553 39.3912 10.0129 39.1706 9.8279C38.95 9.64289 38.6826 9.52241 38.3979 9.47978L34.9042 8.94696L33.326 5.58603C33.1999 5.31759 32.9999 5.09062 32.7495 4.93164C32.4991 4.77266 32.2086 4.68823 31.912 4.68823C31.6154 4.68823 31.3249 4.77266 31.0745 4.93164C30.8241 5.09062 30.6241 5.31759 30.4979 5.58603L28.9198 8.94696L25.426 9.47978C25.142 9.52307 24.8754 9.64384 24.6556 9.82881C24.4357 10.0138 24.2711 10.2558 24.1799 10.5282C24.0886 10.8007 24.0743 11.093 24.1384 11.373C24.2025 11.6531 24.3426 11.9101 24.5432 12.1157L27.1182 14.7532L26.5073 18.5032C26.4601 18.7927 26.4953 19.0896 26.6089 19.36C26.7225 19.6303 26.9099 19.8633 27.1497 20.0322C27.3895 20.2011 27.672 20.299 27.9648 20.3149C28.2577 20.3308 28.5491 20.2639 28.8057 20.122L31.9167 18.4001L35.0229 20.1188C35.2795 20.2608 35.571 20.3277 35.8638 20.3118C36.1567 20.2959 36.4391 20.1979 36.6789 20.0291C36.9187 19.8602 37.1061 19.6272 37.2197 19.3568C37.3333 19.0865 37.3685 18.7895 37.3213 18.5001L36.7104 14.7501L39.2854 12.1126C39.4854 11.9072 39.6249 11.6507 39.6889 11.3712C39.7528 11.0918 39.7386 10.8001 39.6479 10.5282ZM33.9229 13.136C33.752 13.3112 33.6247 13.5241 33.5511 13.7575C33.4776 13.9909 33.4599 14.2383 33.4995 14.4798L33.7198 15.8267L32.6729 15.2485C32.4414 15.1205 32.1812 15.0533 31.9167 15.0533C31.6521 15.0533 31.3919 15.1205 31.1604 15.2485L30.1135 15.8267L30.3338 14.4798C30.3734 14.2383 30.3557 13.9909 30.2822 13.7575C30.2086 13.5241 30.0813 13.3112 29.9104 13.136L28.9088 12.111L30.2213 11.9095C30.4748 11.8708 30.7149 11.7703 30.9203 11.6169C31.1258 11.4634 31.2904 11.2618 31.3995 11.0298L31.9167 9.93603L32.4338 11.0376C32.543 11.2696 32.7075 11.4713 32.913 11.6247C33.1184 11.7781 33.3585 11.8786 33.612 11.9173L34.9245 12.1188L33.9229 13.136Z" fill="#31374A"/>
<path id="Vector 18" d="M11.9789 23.6187L15.6293 21.8525L20.575 23.6187C20.3002 24.914 19.5859 27.9286 18.9264 29.6242C18.267 31.3199 15.2761 29.9382 13.863 29.0354L11.9789 23.6187Z" fill="#A279E5"/>
<path id="Vector_6" d="M19.3979 32.6171C19.6545 32.759 19.946 32.8259 20.2388 32.81C20.5317 32.7941 20.8141 32.6962 21.0539 32.5273C21.2937 32.3584 21.4811 32.1255 21.5947 31.8551C21.7083 31.5847 21.7435 31.2878 21.6963 30.9983L21.0854 27.2483L23.6604 24.6108C23.8611 24.4052 24.0012 24.1482 24.0653 23.8682C24.1294 23.5881 24.115 23.2958 24.0238 23.0233C23.9325 22.7509 23.7679 22.5089 23.5481 22.3239C23.3282 22.139 23.0616 22.0182 22.7776 21.9749L19.2838 21.4421L17.7057 18.0811C17.5795 17.8127 17.3796 17.5857 17.1292 17.4268C16.8787 17.2678 16.5883 17.1833 16.2917 17.1833C15.995 17.1833 15.7046 17.2678 15.4542 17.4268C15.2038 17.5857 15.0038 17.8127 14.8776 18.0811L13.2995 21.4421L9.80572 21.9749C9.52169 22.0182 9.25509 22.139 9.03524 22.3239C8.81539 22.5089 8.6508 22.7509 8.55955 23.0233C8.46831 23.2958 8.45395 23.5881 8.51805 23.8682C8.58216 24.1482 8.72224 24.4052 8.9229 24.6108L11.4979 27.2483L10.887 30.9983C10.8398 31.2878 10.875 31.5847 10.9886 31.8551C11.1022 32.1255 11.2896 32.3584 11.5294 32.5273C11.7692 32.6962 12.0516 32.7941 12.3445 32.81C12.6374 32.8259 12.9288 32.759 13.1854 32.6171L16.2917 30.8999L19.3979 32.6171ZM14.4885 28.3265L14.7088 26.9796C14.7484 26.7381 14.7307 26.4907 14.6572 26.2573C14.5836 26.0239 14.4563 25.811 14.2854 25.6358L13.2838 24.6108L14.5963 24.4093C14.8498 24.3706 15.0899 24.2701 15.2953 24.1167C15.5008 23.9632 15.6653 23.7616 15.7745 23.5296L16.2917 22.4358L16.8088 23.5374C16.918 23.7694 17.0825 23.9711 17.288 24.1245C17.4934 24.2779 17.7335 24.3784 17.987 24.4171L19.2995 24.6186L18.2979 25.6436C18.127 25.8188 17.9997 26.0317 17.9261 26.2651C17.8526 26.4985 17.8349 26.7459 17.8745 26.9874L18.0948 28.3343L17.0479 27.7561C16.8164 27.6281 16.5562 27.5609 16.2917 27.5609C16.0271 27.5609 15.7669 27.6281 15.5354 27.7561L14.4885 28.3265Z" fill="#31374A"/>
<path id="Vector_7" d="M91.5276 21.9798L88.0338 21.447L86.4557 18.086C86.3295 17.8176 86.1296 17.5906 85.8792 17.4316C85.6288 17.2727 85.3383 17.1882 85.0417 17.1882C84.745 17.1882 84.4546 17.2727 84.2042 17.4316C83.9538 17.5906 83.7538 17.8176 83.6276 18.086L82.0495 21.447L78.5557 21.9798C78.2717 22.0231 78.0051 22.1438 77.7852 22.3288C77.5654 22.5138 77.4008 22.7558 77.3096 23.0282C77.2183 23.3007 77.204 23.593 77.2681 23.873C77.3322 24.1531 77.4722 24.4101 77.6729 24.6157L80.2479 27.2532L79.637 31.0032C79.5898 31.2927 79.625 31.5896 79.7386 31.86C79.8522 32.1303 80.0396 32.3633 80.2794 32.5322C80.5192 32.7011 80.8017 32.799 81.0945 32.8149C81.3874 32.8308 81.6788 32.7639 81.9354 32.622L85.0417 30.9001L88.1479 32.6188C88.4045 32.7608 88.696 32.8277 88.9888 32.8118C89.2817 32.7959 89.5641 32.6979 89.8039 32.5291C90.0437 32.3602 90.2311 32.1272 90.3447 31.8568C90.4583 31.5865 90.4936 31.2895 90.4463 31.0001L89.8354 27.2501L92.4104 24.6126C92.6111 24.407 92.7512 24.15 92.8153 23.8699C92.8794 23.5899 92.865 23.2975 92.7738 23.0251C92.6825 22.7527 92.5179 22.5107 92.2981 22.3257C92.0782 22.1407 91.8116 22.0199 91.5276 21.9767V21.9798ZM87.0479 25.636C86.877 25.8112 86.7497 26.0241 86.6761 26.2575C86.6026 26.4909 86.5849 26.7383 86.6245 26.9798L86.8448 28.3267L85.7979 27.7485C85.5664 27.6205 85.3062 27.5533 85.0417 27.5533C84.7771 27.5533 84.5169 27.6205 84.2854 27.7485L83.2385 28.3267L83.4588 26.9798C83.4984 26.7383 83.4807 26.4909 83.4072 26.2575C83.3336 26.0241 83.2063 25.8112 83.0354 25.636L82.0338 24.611L83.3463 24.4095C83.5998 24.3708 83.8399 24.2703 84.0454 24.1169C84.2508 23.9634 84.4154 23.7618 84.5245 23.5298L85.0417 22.436L85.5588 23.5376C85.668 23.7696 85.8325 23.9713 86.038 24.1247C86.2434 24.2781 86.4835 24.3786 86.737 24.4173L88.0495 24.6188L87.0479 25.636Z" fill="#31374A"/>
</g>
</svg>
