<svg width="100" height="100" viewBox="0 0 100 100" fill="none" xmlns="http://www.w3.org/2000/svg">
<g id="employee 1">
<path id="Vector 17" d="M3.08589 85.8119C3.52267 79.435 13.0953 76.3849 17.827 75.6569L22.5224 73.9099L24.1603 75.6569L28.0913 80.4615L31.1487 75.6569C30.7483 75.0382 31.4107 73.9535 37.2635 74.565C44.5795 75.3293 52.0047 83.7372 52.8782 84.174C53.5771 84.5234 53.1694 92.1815 52.8782 95.9669L46.1082 96.5129L3.08589 95.9669C2.9039 95.239 2.64912 92.1889 3.08589 85.8119Z" fill="#A279E5"/>
<path id="Vector" d="M57.8125 1.5625C49.1046 1.59428 40.635 4.41004 33.6413 9.59834C26.6477 14.7866 21.4966 22.0755 18.9406 30.4C17.4144 30.9423 16.0135 31.7871 14.8217 32.8839C13.6299 33.9807 12.6718 35.3068 12.0048 36.7828C11.3379 38.2587 10.9759 39.8542 10.9404 41.4734C10.9049 43.0927 11.1968 44.7025 11.7984 46.2062L13.3156 50H13.2813C11.8309 50 10.4399 50.5762 9.41427 51.6018C8.38868 52.6273 7.81251 54.0183 7.81251 55.4688C7.81251 56.9192 8.38868 58.3102 9.41427 59.3357C10.4399 60.3613 11.8309 60.9375 13.2813 60.9375H14.8875C15.9032 63.7846 17.8045 66.2313 20.3125 67.9187V72.3125L10.1094 75.7141C7.61911 76.5412 5.45288 78.1322 3.91853 80.2609C2.38419 82.3897 1.5598 84.9478 1.56251 87.5719V96.875C1.56251 97.2894 1.72713 97.6868 2.02015 97.9799C2.31318 98.2729 2.71061 98.4375 3.12501 98.4375H53.125C53.5394 98.4375 53.9368 98.2729 54.2299 97.9799C54.5229 97.6868 54.6875 97.2894 54.6875 96.875V87.5719C54.6781 85.8514 54.3121 84.1516 53.6125 82.5797C59.1048 83.1699 64.6597 82.6339 69.9378 81.0043C75.2159 79.3747 80.1062 76.6858 84.3098 73.1021C88.5133 69.5183 91.9419 65.1149 94.3858 60.161C96.8298 55.2072 98.2378 49.807 98.5238 44.2905C98.8098 38.774 97.9677 33.2571 96.0491 28.0771C94.1305 22.8971 91.1757 18.1628 87.3652 14.1635C83.5547 10.1643 78.9687 6.98418 73.8874 4.81757C68.8061 2.65095 63.3364 1.54336 57.8125 1.5625ZM22.9813 32.8125H33.4078C34.5689 32.8172 35.7177 33.0512 36.7881 33.5011C37.8586 33.9511 38.8296 34.608 39.6454 35.4343C40.4612 36.2605 41.1057 37.2398 41.542 38.3159C41.9782 39.3919 42.1976 40.5436 42.1875 41.7047C42.19 42.8477 41.9736 43.9806 41.55 45.0422L40.2031 48.4094C39.1592 48.342 38.1513 48.0017 37.2802 47.4226C36.4091 46.8435 35.7052 46.0458 35.2391 45.1094L34.2188 43.0516C34.0744 42.8094 33.8696 42.6089 33.6245 42.4697C33.3793 42.3304 33.1022 42.2572 32.8203 42.2572C32.5384 42.2572 32.2613 42.3304 32.0162 42.4697C31.771 42.6089 31.5663 42.8094 31.4219 43.0516L30.3938 45.1094C29.8961 46.1132 29.1268 46.9573 28.1733 47.5456C27.2198 48.134 26.1204 48.443 25 48.4375H16.0578L14.7 45.0469C14.1588 43.6934 13.9575 42.2279 14.1136 40.7786C14.2698 39.3294 14.7786 37.9404 15.5957 36.7333C16.4128 35.5261 17.5132 34.5376 18.8007 33.8541C20.0882 33.1706 21.5236 32.813 22.9813 32.8125ZM59.375 17.1875V11.0172C66.5689 11.3683 73.4174 14.2071 78.75 19.0484L75.4688 22.3297L77.6781 24.5391L80.9594 21.2578C85.7962 26.5895 88.6321 33.4349 88.9828 40.625H62.2125C61.8905 39.7142 61.295 38.9251 60.5074 38.3658C59.7197 37.8064 58.7785 37.504 57.8125 37.5C57.1164 37.5027 56.43 37.6629 55.8047 37.9688L36.875 19.0312C42.2159 14.2028 49.0594 11.3654 56.25 10.9984V17.1875H59.375ZM80.9516 63.125L77.6703 59.8438L75.4609 62.0531L78.7422 65.3344C73.4105 70.1712 66.5651 73.0071 59.375 73.3578V46.5875C60.0285 46.3541 60.622 45.9784 61.1127 45.4877C61.6034 44.997 61.9791 44.4035 62.2125 43.75H88.9828C88.6317 50.9438 85.7929 57.7924 80.9516 63.125ZM57.8125 43.75C57.5035 43.75 57.2014 43.6584 56.9444 43.4867C56.6875 43.315 56.4872 43.071 56.3689 42.7854C56.2507 42.4999 56.2197 42.1858 56.28 41.8827C56.3403 41.5796 56.4891 41.3012 56.7076 41.0826C56.9262 40.8641 57.2046 40.7153 57.5077 40.655C57.8108 40.5947 58.1249 40.6257 58.4104 40.7439C58.696 40.8622 58.94 41.0625 59.1117 41.3194C59.2834 41.5764 59.375 41.8785 59.375 42.1875C59.375 42.6019 59.2104 42.9993 58.9174 43.2924C58.6243 43.5854 58.2269 43.75 57.8125 43.75ZM34.6453 21.2297L53.5938 40.1797C53.288 40.805 53.1277 41.4914 53.125 42.1875C53.129 43.1535 53.4314 44.0947 53.9908 44.8823C54.5502 45.67 55.3392 46.2655 56.25 46.5875V73.3656C49.6038 73.0397 43.237 70.5918 38.0844 66.3812C39.6313 64.8612 40.795 62.9954 41.4797 60.9375H42.9688C44.4192 60.9375 45.8102 60.3613 46.8357 59.3357C47.8613 58.3102 48.4375 56.9192 48.4375 55.4688C48.4375 54.0183 47.8613 52.6273 46.8357 51.6018C45.8102 50.5762 44.4192 50 42.9688 50H42.9328L44.4516 46.2031C45.0335 44.7361 45.3259 43.1703 45.3125 41.5922C45.3092 38.4359 44.0539 35.4098 41.822 33.178C39.5902 30.9461 36.5641 29.6908 33.4078 29.6875H29.1703C30.524 26.5897 32.3732 23.733 34.6453 21.2297ZM21.4531 75.2266L25.9156 79.6875L22.6469 82.9562L20.5281 75.5344L21.4531 75.2266ZM34.7969 75.2266L35.7219 75.5391L33.6031 82.9609L30.3344 79.6875L34.7969 75.2266ZM42.1875 53.125H42.9688C43.5904 53.125 44.1865 53.3719 44.626 53.8115C45.0656 54.251 45.3125 54.8471 45.3125 55.4688C45.3125 56.0904 45.0656 56.6865 44.626 57.126C44.1865 57.5656 43.5904 57.8125 42.9688 57.8125H42.1266C42.1609 57.4203 42.1875 57.0313 42.1875 56.625V53.125ZM13.2813 57.8125C12.6597 57.8125 12.0635 57.5656 11.624 57.126C11.1844 56.6865 10.9375 56.0904 10.9375 55.4688C10.9375 54.8471 11.1844 54.251 11.624 53.8115C12.0635 53.3719 12.6597 53.125 13.2813 53.125H14.0625V56.25C14.0646 56.7722 14.0959 57.2938 14.1563 57.8125H13.2813ZM17.1875 56.25V51.5625H25C26.5703 51.5682 28.1152 51.1671 29.4844 50.3981C30.8535 49.6292 32.0001 48.5188 32.8125 47.175C33.4871 48.292 34.3946 49.2505 35.4732 49.985C36.5517 50.7195 37.776 51.2128 39.0625 51.4313V56.6266C39.0592 59.4268 37.9453 62.1113 35.9651 64.0912C33.9849 66.0711 31.3002 67.1846 28.5 67.1875H28.1875C25.2794 67.1925 22.4881 66.0437 20.4259 63.9933C18.3637 61.9428 17.1991 59.1581 17.1875 56.25ZM28.1859 70.3125H28.4984C29.9651 70.3114 31.422 70.0729 32.8125 69.6062V72.7906L28.125 77.4781L23.4375 72.7906V69.4781C24.9605 70.0273 26.5669 70.3096 28.1859 70.3125ZM51.5625 95.3125H4.68751V87.5719C4.68512 85.6042 5.30281 83.6859 6.45283 82.0893C7.60285 80.4928 9.22672 79.2992 11.0938 78.6781L17.5547 76.5234L20.3672 86.3672C20.4418 86.6291 20.5836 86.8669 20.7785 87.0571C20.9733 87.2473 21.2145 87.3833 21.4781 87.4516C21.6079 87.4843 21.7412 87.5006 21.875 87.5C22.2891 87.5003 22.6865 87.3362 22.9797 87.0437L28.125 81.8984L33.2703 87.0437C33.5635 87.3362 33.9609 87.5003 34.375 87.5C34.5072 87.5002 34.639 87.4839 34.7672 87.4516C35.0308 87.3833 35.272 87.2473 35.4669 87.0571C35.6617 86.8669 35.8035 86.6291 35.8781 86.3672L38.6906 76.5234L45.1563 78.6781C47.0233 79.2992 48.6472 80.4928 49.7972 82.0893C50.9472 83.6859 51.5649 85.6042 51.5625 87.5719V95.3125ZM57.8125 79.6875C55.6506 79.6813 53.4933 79.49 51.3641 79.1156C49.9402 77.5564 48.1425 76.3857 46.1406 75.7141L35.9375 72.3125V68.6594C41.5364 73.2852 48.457 76.018 55.7059 76.4653C62.9547 76.9127 70.1589 75.0516 76.284 71.1493C82.4092 67.247 87.1403 61.5041 89.7982 54.7453C92.456 47.9865 92.9038 40.5593 91.0773 33.5301C89.2508 26.5009 85.244 20.2312 79.632 15.6212C74.0201 11.0112 67.0918 8.29806 59.8417 7.8712C52.5916 7.44435 45.3927 9.32579 39.2786 13.2454C33.1645 17.165 28.4496 22.9212 25.8109 29.6875H22.9813C22.8078 29.6875 22.6391 29.7063 22.4656 29.7141C24.7531 23.2287 28.7798 17.4973 34.1055 13.1465C39.4311 8.79574 45.8506 5.9932 52.6619 5.04539C59.4732 4.09757 66.4139 5.04098 72.7251 7.77244C79.0363 10.5039 84.4748 14.9182 88.446 20.5327C92.4171 26.1471 94.768 32.7454 95.2414 39.606C95.7148 46.4666 94.2926 53.3252 91.1302 59.4319C87.9678 65.5386 83.1872 70.6581 77.311 74.2305C71.4348 77.803 64.6894 79.6908 57.8125 79.6875Z" fill="#31374A"/>
</g>
</svg>
