<svg width="41" height="40" viewBox="0 0 41 40" fill="none" xmlns="http://www.w3.org/2000/svg">
<g id="Facebook svg" clip-path="url(#clip0_528_8399)">
<g id="g10">
<g id="g12">
<path id="path14" d="M40.7737 19.9998C40.7737 8.9541 31.8194 -0.000198364 20.7737 -0.000198364C9.72798 -0.000198364 0.773682 8.9541 0.773682 19.9998C0.773682 29.9824 8.08739 38.2564 17.6487 39.7568V25.7811H12.5706V19.9998H17.6487V15.5936C17.6487 10.5811 20.6345 7.8123 25.203 7.8123C27.3911 7.8123 29.6799 8.20293 29.6799 8.20293V13.1248H27.158C24.6735 13.1248 23.8987 14.6665 23.8987 16.2481V19.9998H29.4456L28.5588 25.7811H23.8987V39.7568C33.46 38.2564 40.7737 29.9824 40.7737 19.9998Z" fill="#31374A"/>
<path id="path16" d="M28.5588 25.7812L29.4456 20H23.8987V16.2483C23.8987 14.6667 24.6735 13.125 27.158 13.125H29.6799V8.20312C29.6799 8.20312 27.3911 7.8125 25.203 7.8125C20.6345 7.8125 17.6487 10.5812 17.6487 15.5938V20H12.5706V25.7812H17.6487V39.757C18.6669 39.9168 19.7106 40 20.7737 40C21.8368 40 22.8804 39.9168 23.8987 39.757V25.7812H28.5588Z" fill="white"/>
</g>
</g>
</g>
<defs>
<clipPath id="clip0_528_8399">
<rect width="40" height="40" fill="white" transform="translate(0.773682)"/>
</clipPath>
</defs>
</svg>
