<?xml version="1.0" encoding="UTF-8"?>
<svg version="1.1" xmlns="http://www.w3.org/2000/svg" width="15" height="15">
<path d="M0 0 C2.5 2.0625 2.5 2.0625 4 5 C4.0625 8.625 4.0625 8.625 3 12 C0.17708663 14.58094937 -1.30522028 15.01389559 -5.125 14.9375 C-8 14 -8 14 -9.875 12.3125 C-11.35810604 9.26389315 -11.48891657 7.35257076 -11 4 C-8.07075041 -0.45245938 -5.11843736 -0.822606 0 0 Z M-4 2 C-4.33 2.66 -4.66 3.32 -5 4 C-4.34 4 -3.68 4 -3 4 C-3.33 3.34 -3.66 2.68 -4 2 Z M-9 6 C-8 8 -8 8 -8 8 Z M-5 6 C-5 6.66 -5 7.32 -5 8 C-4.01 8 -3.02 8 -2 8 C-2 7.34 -2 6.68 -2 6 C-2.99 6 -3.98 6 -5 6 Z M0 6 C0 6.66 0 7.32 0 8 C0.66 7.67 1.32 7.34 2 7 C1.34 6.67 0.68 6.34 0 6 Z M-5 10 C-4.34 10.66 -3.68 11.32 -3 12 C-2.67 11.34 -2.34 10.68 -2 10 C-2.99 10 -3.98 10 -5 10 Z " fill="#303649" transform="translate(11,0)"/>
</svg>
