<svg width="79" height="78" viewBox="0 0 79 78" fill="none" xmlns="http://www.w3.org/2000/svg">
<g id="Group">
<path id="Vector" d="M78.704 20.5338C78.124 9.12383 68.464 0.173828 56.714 0.173828H41.554C29.754 0.173828 20.094 9.14383 19.554 20.6038C19.454 22.7938 19.674 24.9438 20.204 27.0038C9.76404 28.2938 1.47404 36.7938 0.954037 47.1638C0.554037 55.0538 4.42404 62.3838 11.094 66.5138V74.5038C11.094 75.8638 11.914 77.0638 13.184 77.5538C13.574 77.7038 13.974 77.7738 14.364 77.7738C15.264 77.7738 16.144 77.3938 16.774 76.6938L23.074 69.7338H38.654C44.574 69.7338 50.094 67.3738 54.184 63.0838C58.274 58.8038 60.374 53.1738 60.094 47.2338C60.094 47.1438 60.074 47.0538 60.074 46.9638L62.874 50.0538C63.504 50.7538 64.384 51.1338 65.284 51.1338C65.684 51.1338 66.084 51.0638 66.474 50.9138C67.744 50.4238 68.564 49.2338 68.564 47.8738V39.8838C75.234 35.7538 79.094 28.4238 78.704 20.5338ZM51.934 60.9338C48.434 64.5938 43.724 66.6138 38.664 66.6138H22.394C21.954 66.6138 21.534 66.8038 21.234 67.1238L14.464 74.5938C14.434 74.6238 14.394 74.6638 14.304 74.6338C14.214 74.5938 14.214 74.5438 14.214 74.5038V65.6238C14.214 65.0638 13.914 64.5438 13.414 64.2638C7.29404 60.8238 3.71404 54.3338 4.06404 47.3238C4.52404 38.2538 11.974 30.8438 21.244 30.0238C21.254 30.0338 21.254 30.0538 21.264 30.0638C21.854 31.4338 22.584 32.7338 23.454 33.9638C23.514 34.0538 23.574 34.1438 23.634 34.2238C23.894 34.5738 24.164 34.9238 24.444 35.2638C24.544 35.3838 24.644 35.5038 24.754 35.6238C24.994 35.8938 25.204 36.1738 25.454 36.4438C26.204 37.2238 27.004 37.9138 27.844 38.5738C27.874 38.5938 27.904 38.6138 27.924 38.6338C30.354 40.5138 33.124 41.8338 36.094 42.5138C36.154 42.5238 36.214 42.5438 36.284 42.5638C36.614 42.6338 36.954 42.6938 37.284 42.7538C37.624 42.8138 37.974 42.8638 38.314 42.9138C38.564 42.9438 38.814 42.9738 39.074 43.0038C39.704 43.0638 40.344 43.1038 40.984 43.1038H56.234C56.654 44.5038 56.904 45.9338 56.974 47.3838C57.224 52.4638 55.434 57.2738 51.934 60.9338ZM66.234 37.6338C65.744 37.9138 65.434 38.4338 65.434 38.9938V47.8738C65.434 47.9138 65.434 47.9738 65.344 48.0038C65.254 48.0438 65.214 47.9938 65.184 47.9638L58.414 40.4938C58.114 40.1638 57.694 39.9838 57.254 39.9838H40.994C40.434 39.9838 39.884 39.9538 39.344 39.9038C39.114 39.8838 38.874 39.8538 38.644 39.8238C38.364 39.7838 38.084 39.7438 37.804 39.6938C37.494 39.6338 37.174 39.5838 36.874 39.5138C36.754 39.4838 36.644 39.4538 36.534 39.4238C33.504 38.6538 30.734 37.1238 28.474 35.0138C28.394 34.9438 28.314 34.8638 28.244 34.7938C27.964 34.5138 27.684 34.2338 27.414 33.9438C27.354 33.8838 27.304 33.8138 27.254 33.7538C26.394 32.7738 25.624 31.7038 24.974 30.5438C24.954 30.5138 24.934 30.4838 24.924 30.4538C24.474 29.6438 24.094 28.7838 23.764 27.8938C23.754 27.8738 23.744 27.8538 23.734 27.8338C22.944 25.6038 22.574 23.2238 22.684 20.7738C23.144 10.9838 31.444 3.32383 41.564 3.32383H56.714C66.804 3.32383 75.094 10.9638 75.594 20.7138C75.934 27.7038 72.354 34.1938 66.234 37.6338Z" fill="#31374A"/>
<path id="Vector_2" d="M61.3139 9.85382L30.4739 18.6638C29.8939 18.8338 29.4539 19.3238 29.3639 19.9138C29.2639 20.5138 29.5239 21.1138 30.0339 21.4538L35.0339 24.8438L35.5239 31.9538C35.5639 32.5338 35.9239 33.0438 36.4539 33.2738C36.6539 33.3638 36.8739 33.4038 37.0839 33.4038C37.4339 33.4038 37.7739 33.2838 38.0539 33.0638L42.2439 29.7238L47.3339 33.1438C47.6839 33.3738 48.1039 33.4638 48.5139 33.3738C48.9239 33.2938 49.2839 33.0538 49.5139 32.7038L63.0539 12.2038C63.4139 11.6538 63.3939 10.9438 63.0139 10.4238C62.6139 9.90382 61.9439 9.67382 61.3139 9.85382ZM47.7639 29.6738L43.0239 26.4938C42.7639 26.3138 42.4539 26.2338 42.1539 26.2338C41.8139 26.2338 41.4639 26.3438 41.1839 26.5738L38.4239 28.7738L38.0839 23.8638C38.0539 23.3838 37.8039 22.9438 37.4039 22.6838L34.5339 20.7438L58.1139 14.0038L47.7639 29.6738Z" fill="#31374A"/>
<path id="Vector_3" d="M47.7642 29.6738L43.0242 26.4938C42.7642 26.3138 42.4542 26.2338 42.1542 26.2338C41.8142 26.2338 41.4642 26.3438 41.1842 26.5738L38.4242 28.7738L38.0842 23.8638C38.0542 23.3838 37.8042 22.9438 37.4042 22.6838L34.5342 20.7438L58.1142 14.0038L47.7642 29.6738Z" fill="#A279E5"/>
<path id="Vector_4" d="M43.8238 46.4739H17.2338C16.3738 46.4739 15.6738 47.1739 15.6738 48.0339C15.6738 48.8939 16.3738 49.5939 17.2338 49.5939H43.8238C44.6838 49.5939 45.3838 48.8939 45.3838 48.0339C45.3838 47.1739 44.6838 46.4739 43.8238 46.4739Z" fill="#31374A"/>
<path id="Vector_5" d="M32.7139 54.3539H17.6039C16.7439 54.3539 16.0439 55.0539 16.0439 55.9139C16.0439 56.7739 16.7439 57.4739 17.6039 57.4739H32.7139C33.5739 57.4739 34.2739 56.7739 34.2739 55.9139C34.2739 55.0439 33.5739 54.3539 32.7139 54.3539Z" fill="#31374A"/>
</g>
</svg>
