<svg width="78" height="78" viewBox="0 0 78 78" fill="none" xmlns="http://www.w3.org/2000/svg">
<g id="Group">
<path id="Vector" d="M71.133 18.0738C72.623 16.0038 73.303 13.4438 72.993 10.8238L72.783 9.20375C72.573 7.36375 71.153 5.93375 69.303 5.70375L67.483 5.48376C64.993 5.18375 62.523 5.80375 60.503 7.16375C54.103 2.78375 46.633 0.473755 38.813 0.473755C33.333 0.473755 28.123 1.63375 23.393 3.70375C23.373 3.71375 23.363 3.72375 23.343 3.72375C9.81301 9.70375 0.333008 23.2538 0.333008 38.9738C0.333008 43.4638 1.11301 47.7838 2.53301 51.7938C4.45301 57.2138 7.55301 62.0938 11.533 66.0938C9.71301 69.2638 8.92301 72.0238 9.95301 73.8438C10.793 75.3438 12.423 76.0938 15.003 76.0938C17.213 76.0938 20.133 75.5338 23.843 74.4338C27.963 76.1838 32.463 77.2238 37.163 77.4238C37.183 77.4238 37.203 77.4338 37.223 77.4338C37.253 77.4338 37.273 77.4338 37.303 77.4338C37.813 77.4538 38.313 77.4738 38.823 77.4738C53.953 77.4738 67.063 68.6938 73.353 55.9738C73.423 55.8738 73.473 55.7738 73.523 55.6538C73.523 55.6438 73.523 55.6437 73.533 55.6338C75.963 50.5938 77.323 44.9438 77.323 38.9738C77.323 31.5038 75.173 24.3038 71.133 18.0738ZM60.853 11.0038C62.213 9.42375 64.183 8.53375 66.243 8.53375C66.533 8.53375 66.823 8.55375 67.123 8.58375L68.943 8.80375C69.343 8.85375 69.643 9.16375 69.693 9.57375L69.903 11.2038C70.193 13.6638 69.233 16.0638 67.323 17.6238L59.483 24.0338L51.683 30.4038C51.673 30.4038 51.673 30.4138 51.673 30.4238L38.313 41.3338C38.183 41.4338 38.033 41.5138 37.853 41.5838C37.353 41.7538 36.743 41.6138 36.373 41.2438C36.013 40.8838 35.863 40.3738 35.993 39.8538C36.043 39.6438 36.143 39.4438 36.303 39.2638L60.853 11.0038ZM61.193 26.6538L65.533 41.4338C65.763 42.2338 65.543 43.1038 64.943 43.7138L63.543 45.1138L54.743 31.9338L60.253 27.4238L61.193 26.6538ZM45.273 49.9638L45.013 50.2238L40.553 43.5338L43.173 41.3938L45.453 49.2638C45.523 49.5038 45.453 49.7738 45.273 49.9638ZM33.963 37.1938C33.953 37.2038 33.953 37.2038 33.943 37.2138L27.093 32.3738L27.393 32.0738C27.573 31.8938 27.833 31.8238 28.073 31.8938L36.423 34.3438L33.963 37.1938ZM45.963 23.3638L33.453 15.0238L34.853 13.6238C35.453 13.0238 36.333 12.8038 37.133 13.0338L51.363 17.1638L45.963 23.3638ZM3.45301 38.9738C3.45301 25.0138 11.583 12.9238 23.353 7.17375C24.413 8.91375 25.893 12.6138 22.103 16.0038C20.743 17.2238 19.343 18.1838 18.003 19.1138C13.463 22.2538 9.17301 25.2138 11.743 35.2838C12.273 37.3538 13.223 42.5438 10.683 46.1238C9.46301 47.8438 7.56301 48.9338 5.02301 49.3738C4.00301 46.0938 3.45301 42.5938 3.45301 38.9738ZM6.08301 52.3438C9.19301 51.6938 11.603 50.2238 13.223 47.9338C15.533 44.6638 16.093 39.7738 14.753 34.5238C12.713 26.5538 15.373 24.7238 19.763 21.6938C21.123 20.7538 22.663 19.6938 24.173 18.3438C28.943 14.0838 27.973 9.05375 26.233 5.93375C30.143 4.43375 34.393 3.61375 38.823 3.61375C45.753 3.61375 52.393 5.61375 58.133 9.37375L53.613 14.5738L37.983 10.0438C36.083 9.50375 34.033 10.0338 32.633 11.4338L29.883 14.1838C29.553 14.5138 29.383 14.9738 29.433 15.4438C29.483 15.9138 29.733 16.3338 30.123 16.5838L43.893 25.7638L38.673 31.7738L28.943 28.9238C27.603 28.5438 26.163 28.9138 25.183 29.8938L23.573 31.5038C23.243 31.8338 23.083 32.2838 23.123 32.7438C23.163 33.2038 23.403 33.6238 23.773 33.8838L32.813 40.2738C32.813 40.9038 32.953 41.5338 33.213 42.1038C28.353 46.4938 18.613 55.6838 13.243 63.4138C10.223 60.2038 7.77301 56.4738 6.08301 52.3438ZM12.673 72.3138C12.243 71.5537 12.693 70.1038 13.793 68.1838C15.603 69.7338 17.553 71.1238 19.633 72.3238C13.693 73.6738 12.763 72.4837 12.673 72.3138ZM47.773 73.2038C49.213 71.6637 50.303 69.7138 51.053 67.3138C51.693 65.2637 52.003 63.4738 52.273 61.8838C52.903 58.2438 53.183 56.5838 56.283 55.5038C60.953 53.8738 66.933 55.1938 69.813 56.0138C65.173 64.4138 57.243 70.7337 47.773 73.2038ZM71.213 53.1838C68.243 52.2738 61.103 50.5338 55.253 52.5738C50.413 54.2638 49.843 57.5538 49.193 61.3638C48.933 62.8538 48.643 64.5438 48.073 66.3938C46.993 69.8638 44.783 73.9037 37.223 74.3138C28.923 73.9437 21.373 70.6938 15.513 65.5538C19.623 59.7838 27.403 51.5438 35.423 44.3138C36.033 44.6038 36.703 44.7838 37.403 44.7838C37.473 44.7838 37.553 44.7738 37.623 44.7638L43.473 53.5438C43.733 53.9338 44.153 54.1838 44.613 54.2338C44.663 54.2438 44.713 54.2438 44.773 54.2438C45.183 54.2438 45.583 54.0838 45.873 53.7938L47.483 52.1938L47.493 52.1838C48.473 51.1938 48.833 49.7538 48.453 48.4238L45.803 39.2738L52.323 33.9438L62.003 48.4538C62.263 48.8438 62.683 49.0938 63.143 49.1438C63.193 49.1538 63.243 49.1538 63.293 49.1538C63.703 49.1538 64.103 48.9938 64.393 48.6938L67.143 45.9438C68.553 44.5338 69.083 42.4838 68.523 40.5838L63.813 24.5438L68.893 20.3638C72.363 25.9538 74.203 32.3438 74.203 38.9738C74.203 44.0338 73.133 48.8338 71.213 53.1838Z" fill="#31374A"/>
<path id="Vector_2" d="M60.8535 11.0037C62.2135 9.42369 64.1835 8.53369 66.2435 8.53369C66.5335 8.53369 66.8235 8.55369 67.1235 8.58369L68.9435 8.80369C69.3435 8.85369 69.6435 9.16369 69.6935 9.57369L69.9035 11.2037C70.1935 13.6637 69.2335 16.0637 67.3235 17.6237L59.4834 24.0337L51.6835 30.4037C51.6735 30.4037 51.6734 30.4137 51.6734 30.4237L38.3134 41.3337C38.1834 41.4337 38.0335 41.5137 37.8535 41.5837C37.3535 41.7537 36.7435 41.6137 36.3735 41.2437C36.0135 40.8837 35.8634 40.3737 35.9934 39.8537C36.0434 39.6437 36.1435 39.4437 36.3035 39.2637L60.8535 11.0037Z" fill="#A279E5"/>
<path id="Vector_3" d="M61.1932 26.6538L65.5332 41.4338C65.7632 42.2338 65.5432 43.1038 64.9432 43.7138L63.5432 45.1138L54.7432 31.9338L60.2532 27.4238L61.1932 26.6538Z" fill="#A279E5"/>
<path id="Vector_4" d="M45.2727 49.9638L45.0127 50.2238L40.5527 43.5338L43.1727 41.3938L45.4527 49.2638C45.5227 49.5038 45.4527 49.7738 45.2727 49.9638Z" fill="#A279E5"/>
<path id="Vector_5" d="M33.9628 37.1938C33.9528 37.2038 33.9528 37.2038 33.9428 37.2138L27.0928 32.3738L27.3928 32.0738C27.5728 31.8938 27.8328 31.8238 28.0728 31.8938L36.4228 34.3438L33.9628 37.1938Z" fill="#A279E5"/>
<path id="Vector_6" d="M45.9631 23.3637L33.4531 15.0237L34.8531 13.6237C35.4531 13.0237 36.3331 12.8037 37.1331 13.0337L51.3631 17.1637L45.9631 23.3637Z" fill="#A279E5"/>
</g>
</svg>
