<svg width="96" height="80" viewBox="0 0 96 80" fill="none" xmlns="http://www.w3.org/2000/svg">
<g id="Group">
<path id="Vector" d="M72.0195 50.5001C71.8395 49.6601 71.0095 49.1201 70.1695 49.3101C69.3295 49.4901 68.7895 50.3201 68.9795 51.1601L70.0795 56.2401C70.2395 56.9701 70.8795 57.4701 71.5995 57.4701C71.7095 57.4701 71.8195 57.4601 71.9295 57.4301C72.7695 57.2501 73.3095 56.4201 73.1195 55.5801L72.0195 50.5001Z" fill="#31374A"/>
<path id="Vector_2" d="M25.6698 42.0101L33.7298 40.7601L30.6298 48.5801L26.2798 49.4201C25.4298 49.5801 24.8798 50.4001 25.0398 51.2501C25.1798 52.0001 25.8398 52.5101 26.5698 52.5101C26.6698 52.5101 26.7698 52.5001 26.8698 52.4801L32.0598 51.4701C32.5798 51.3701 33.0198 51.0101 33.2098 50.5101L36.6298 41.8901L41.6398 48.3301C41.9498 48.7301 42.4098 48.9301 42.8698 48.9301C43.2098 48.9301 43.5398 48.8201 43.8298 48.6001C44.5098 48.0701 44.6298 47.0901 44.0998 46.4101L37.9598 38.5301L40.8298 31.3001C41.1498 30.5001 40.7598 29.5901 39.9498 29.2701C39.1498 28.9501 38.2398 29.3401 37.9198 30.1501L35.0498 37.3801L25.1698 38.9201C24.3198 39.0501 23.7398 39.8501 23.8698 40.7001C24.0198 41.5601 24.8298 42.1301 25.6698 42.0101Z" fill="#31374A"/>
<path id="Vector_3" d="M77.3005 31.6L73.7505 25.84C72.2605 26.4 70.6405 26.51 69.0605 26.13C66.9605 25.63 65.1905 24.35 64.0605 22.52C62.0105 19.19 62.6805 14.93 65.4505 12.37L61.9006 6.60001C60.2906 3.98001 56.8406 3.16001 54.2206 4.78001L42.0605 12.11L63.4006 46.86L75.4805 39.28C78.1005 37.66 78.9205 34.22 77.3005 31.6Z" fill="#A279E5"/>
<path id="Vector_4" d="M95.2603 56.2901L93.5903 48.5901C93.5003 48.1901 93.2603 47.8301 92.9103 47.6101C92.5603 47.3901 92.1403 47.3101 91.7303 47.4001C90.4403 47.6801 89.1203 47.4401 88.0103 46.7201C85.9703 45.4101 85.0903 42.7801 86.2603 40.0901C86.8403 38.7601 88.1403 37.9801 89.5803 37.7401C90.0103 37.6701 90.3903 37.4101 90.6303 37.0501C90.8503 36.7001 90.9303 36.2801 90.8403 35.8701L89.1703 28.1701C88.7003 26.0101 87.5503 24.0201 85.7703 22.7101C83.7303 21.2101 81.2103 20.6801 78.7603 21.2101L74.8403 22.0601C74.3803 22.1601 73.9303 22.3101 73.5003 22.5201C72.4603 23.0101 70.8103 23.3401 69.7703 23.0901C68.4903 22.7901 67.4003 22.0001 66.7003 20.8701C66.0103 19.7501 65.7903 18.4201 66.1003 17.1301C66.4003 15.8601 67.1703 14.7901 68.2703 14.0901C69.0203 13.6201 69.2903 12.6701 68.8303 11.9101L64.5403 4.94006C62.0203 0.860059 56.6503 -0.419941 52.5603 2.10006L4.29028 31.8801C2.15028 33.2001 0.700277 35.3301 0.280277 37.8401C-0.089723 40.0101 0.460277 42.2501 1.62028 44.1301L5.75028 50.8301C6.21028 51.5801 7.19028 51.7701 7.95028 51.3101C10.2703 49.9201 13.2803 50.6501 14.7003 52.9501C15.3903 54.0701 15.6103 55.4001 15.3003 56.6901C14.9903 57.9801 14.2103 59.0601 13.0803 59.7601C12.7303 59.9801 12.4803 60.3301 12.3803 60.7301C12.2803 61.1301 12.3503 61.5601 12.5703 61.9101L16.8603 68.8701C18.2703 71.1601 20.5703 72.5501 23.0403 72.9101C24.1403 76.6401 27.5803 79.1401 31.3803 79.1401C31.9903 79.1401 32.6003 79.0801 33.2203 78.9401L88.6503 66.9401C91.1003 66.4101 93.1803 64.8801 94.4103 62.6701C95.5003 60.7401 95.7303 58.4501 95.2603 56.2901ZM19.5203 67.2201L15.9703 61.4601C18.7403 58.9001 19.4103 54.6401 17.3603 51.3101C15.3103 47.9801 11.2103 46.6701 7.67028 47.9901L4.12028 42.2301C3.34028 40.9601 3.10028 39.4601 3.44028 38.0101C3.78028 36.5601 4.67028 35.3301 5.94028 34.5501L40.6803 13.1301L42.5903 16.2301C42.8903 16.7101 43.4003 16.9701 43.9203 16.9701C44.2003 16.9701 44.4803 16.8901 44.7403 16.7401C45.4703 16.2901 45.7003 15.3301 45.2503 14.5901L43.3403 11.4901L54.2103 4.77006C56.8303 3.15006 60.2803 3.97006 61.8903 6.59006L65.4403 12.3601C62.6703 14.9201 62.0003 19.1801 64.0503 22.5101C65.1803 24.3401 66.9603 25.6301 69.0503 26.1201C70.6303 26.4901 72.2503 26.3901 73.7403 25.8301L77.2903 31.5901C78.9003 34.2101 78.0903 37.6601 75.4703 39.2701L64.5903 45.9801L62.6803 42.8801C62.2303 42.1501 61.2703 41.9201 60.5303 42.3701C59.8003 42.8201 59.5703 43.7801 60.0203 44.5201L61.9303 47.6201L27.2003 69.0401C24.5803 70.6601 21.1303 69.8401 19.5203 67.2201ZM88.0003 63.8901L75.5103 66.5901L74.7403 63.0301C74.5603 62.1901 73.7303 61.6501 72.8903 61.8401C72.0503 62.0201 71.5103 62.8501 71.7003 63.6901L72.4703 67.2501L32.5803 75.8801C29.9703 76.4401 27.3803 75.0701 26.3203 72.7301C27.1903 72.5201 28.0503 72.1901 28.8503 71.6901L64.9103 49.4601L77.1203 41.9401C81.2103 39.4201 82.4803 34.0501 79.9603 29.9601L76.8003 24.8301L79.4303 24.2601C82.4403 23.6101 85.4203 25.5301 86.0703 28.5401L87.5003 35.1601C84.0403 36.6601 81.9903 40.4501 82.8203 44.2701C83.2803 46.3801 84.5203 48.1801 86.3303 49.3401C87.7003 50.2201 89.2903 50.6601 90.8503 50.6201L92.2803 57.2401C92.9303 60.2601 91.0103 63.2301 88.0003 63.8901Z" fill="#31374A"/>
<path id="Vector_5" d="M49.3002 27.13C49.6002 27.61 50.1102 27.87 50.6302 27.87C50.9102 27.87 51.1902 27.79 51.4502 27.64C52.1802 27.19 52.4102 26.23 51.9602 25.49L49.2302 21.06C48.7802 20.33 47.8202 20.1 47.0802 20.55C46.3502 21 46.1202 21.96 46.5702 22.7L49.3002 27.13Z" fill="#31374A"/>
<path id="Vector_6" d="M56.0306 38.0401C56.3306 38.5201 56.8407 38.7801 57.3607 38.7801C57.6407 38.7801 57.9207 38.7001 58.1807 38.5501C58.9107 38.1001 59.1407 37.1401 58.6907 36.4001L55.9606 31.9701C55.5106 31.2401 54.5506 31.0101 53.8106 31.4601C53.0806 31.9101 52.8506 32.8701 53.3006 33.6101L56.0306 38.0401Z" fill="#31374A"/>
</g>
</svg>
