<svg width="41" height="40" viewBox="0 0 41 40" fill="none" xmlns="http://www.w3.org/2000/svg">
<g id="Instagram svg" clip-path="url(#clip0_528_8404)">
<path id="Vector" d="M12.4905 0.139875C10.3625 0.240275 8.90931 0.579875 7.63891 1.07908C6.32411 1.59148 5.20971 2.27908 4.10091 3.39188C2.99211 4.50468 2.30931 5.61988 1.80051 6.93668C1.30811 8.20988 0.974514 9.66428 0.880514 11.7935C0.786514 13.9227 0.765714 14.6071 0.776114 20.0383C0.786514 25.4695 0.810514 26.1503 0.913714 28.2839C1.01531 30.4115 1.35371 31.8643 1.85291 33.1351C2.36611 34.4499 3.05291 35.5639 4.16611 36.6731C5.27931 37.7823 6.39371 38.4635 7.71371 38.9731C8.98571 39.4647 10.4405 39.7999 12.5693 39.8931C14.6981 39.9863 15.3833 40.0079 20.8129 39.9975C26.2425 39.9871 26.9261 39.9631 29.0593 39.8619C31.1925 39.7607 32.6377 39.4199 33.9089 38.9231C35.2237 38.4087 36.3385 37.7231 37.4469 36.6095C38.5553 35.4959 39.2377 34.3799 39.7461 33.0623C40.2389 31.7903 40.5737 30.3355 40.6661 28.2083C40.7593 26.0735 40.7813 25.3919 40.7709 19.9615C40.7605 14.5311 40.7361 13.8503 40.6349 11.7175C40.5337 9.58468 40.1949 8.13628 39.6961 6.86468C39.1821 5.54988 38.4961 4.43668 37.3833 3.32668C36.2705 2.21668 35.1537 1.53468 33.8365 1.02748C32.5637 0.535075 31.1097 0.199475 28.9809 0.107475C26.8521 0.0154752 26.1669 -0.00812478 20.7353 0.00227522C15.3037 0.0126752 14.6237 0.0358752 12.4905 0.139875ZM12.7241 36.2951C10.7741 36.2103 9.71531 35.8863 9.00971 35.6151C8.07531 35.2551 7.40971 34.8199 6.70651 34.1235C6.00331 33.4271 5.57131 32.7591 5.20651 31.8267C4.93251 31.1211 4.60251 30.0635 4.51131 28.1135C4.41211 26.0059 4.39131 25.3731 4.37971 20.0335C4.36811 14.6939 4.38851 14.0619 4.48091 11.9535C4.56411 10.0051 4.89011 8.94508 5.16091 8.23988C5.52091 7.30428 5.95451 6.63988 6.65251 5.93708C7.35051 5.23428 8.01651 4.80148 8.94971 4.43668C9.65451 4.16148 10.7121 3.83428 12.6613 3.74148C14.7705 3.64148 15.4025 3.62148 20.7413 3.60988C26.0801 3.59828 26.7137 3.61828 28.8237 3.71108C30.7721 3.79588 31.8325 4.11868 32.5369 4.39108C33.4717 4.75108 34.1369 5.18348 34.8397 5.88268C35.5425 6.58188 35.9757 7.24548 36.3405 8.18068C36.6161 8.88348 36.9433 9.94068 37.0353 11.8911C37.1357 14.0003 37.1585 14.6327 37.1681 19.9711C37.1777 25.3095 37.1589 25.9435 37.0665 28.0511C36.9813 30.0011 36.6581 31.0603 36.3865 31.7667C36.0265 32.7007 35.5925 33.3667 34.8941 34.0691C34.1957 34.7715 33.5305 35.2043 32.5969 35.5691C31.8929 35.8439 30.8341 36.1719 28.8865 36.2647C26.7773 36.3639 26.1453 36.3847 20.8045 36.3963C15.4637 36.4079 14.8337 36.3863 12.7245 36.2951M29.0285 9.31068C29.0293 9.78538 29.1709 10.2492 29.4353 10.6435C29.6997 11.0377 30.0751 11.3447 30.514 11.5256C30.9528 11.7065 31.4355 11.7532 31.9009 11.6597C32.3664 11.5663 32.7936 11.3369 33.1287 11.0006C33.4637 10.6643 33.6915 10.2362 33.7833 9.77047C33.875 9.30471 33.8266 8.82221 33.6441 8.38398C33.4616 7.94576 33.1532 7.5715 32.758 7.30854C32.3627 7.04558 31.8984 6.90573 31.4237 6.90668C30.7873 6.90795 30.1775 7.16191 29.7283 7.61273C29.2792 8.06354 29.0274 8.67429 29.0285 9.31068ZM10.5045 20.0199C10.5157 25.6919 15.1221 30.2795 20.7929 30.2687C26.4637 30.2579 31.0545 25.6519 31.0437 19.9799C31.0329 14.3079 26.4253 9.71908 20.7537 9.73028C15.0821 9.74148 10.4937 14.3487 10.5045 20.0199ZM14.1069 20.0127C14.1043 18.6941 14.4928 17.4044 15.2231 16.3066C15.9535 15.2088 16.993 14.3522 18.2102 13.8452C19.4274 13.3382 20.7676 13.2035 22.0614 13.4582C23.3551 13.7129 24.5443 14.3455 25.4785 15.276C26.4127 16.2065 27.05 17.3932 27.3098 18.6859C27.5696 19.9786 27.4402 21.3194 26.9381 22.5386C26.4359 23.7578 25.5834 24.8007 24.4886 25.5354C23.3937 26.2701 22.1055 26.6637 20.7869 26.6663C19.9114 26.6681 19.0441 26.4975 18.2345 26.1641C17.4249 25.8307 16.689 25.3411 16.0687 24.7232C15.4484 24.1053 14.9558 23.3713 14.6192 22.5631C14.2826 21.7548 14.1085 20.8882 14.1069 20.0127Z" fill="#31374A"/>
</g>
<defs>
<clipPath id="clip0_528_8404">
<rect width="40" height="40" fill="white" transform="translate(0.773682)"/>
</clipPath>
</defs>
</svg>
