<svg width="41" height="40" viewBox="0 0 41 40" fill="none" xmlns="http://www.w3.org/2000/svg">
<g id="LinkedIn svg" clip-path="url(#clip0_528_8406)">
<path id="Path 2520" d="M34.945 33.8354H29.0025V24.6209C29.0025 22.4236 28.9629 19.595 25.9118 19.595C22.8168 19.595 22.3433 21.989 22.3433 24.4609V33.8348H16.4008V14.886H22.1055V17.4756H22.1854C22.7563 16.509 23.5813 15.7139 24.5725 15.1749C25.5637 14.6359 26.684 14.3732 27.814 14.4147C33.837 14.4147 34.9475 18.3373 34.9475 23.4404L34.945 33.8354ZM9.69569 12.2959C9.01364 12.296 8.34686 12.0958 7.77969 11.7207C7.21252 11.3457 6.77045 10.8125 6.50933 10.1886C6.24821 9.5647 6.17978 8.87817 6.31272 8.21579C6.44566 7.55341 6.774 6.94495 7.25619 6.46733C7.73838 5.98972 8.35279 5.6644 9.02171 5.53253C9.69062 5.40066 10.384 5.46816 11.0142 5.72649C11.6444 5.98481 12.183 6.42236 12.562 6.98381C12.9411 7.54526 13.1434 8.20539 13.1436 8.88072C13.1436 9.32912 13.0545 9.77315 12.8813 10.1874C12.7081 10.6017 12.4541 10.9782 12.134 11.2953C11.8138 11.6125 11.4337 11.864 11.0153 12.0357C10.5969 12.2074 10.1485 12.2958 9.69569 12.2959ZM12.6669 33.8354H6.71826V14.886H12.6669V33.8354ZM37.9076 0.00270549H3.73218C2.9565 -0.0059619 2.20903 0.290648 1.6541 0.827357C1.09917 1.36407 0.782172 2.09696 0.772705 2.865V36.8442C0.781848 37.6126 1.09866 38.346 1.65357 38.8832C2.20849 39.4205 2.95611 39.7177 3.73218 39.7095H37.9076C38.6852 39.7192 39.4349 39.4228 39.992 38.8856C40.5491 38.3483 40.868 37.6141 40.8788 36.8442V2.86255C40.8677 2.09299 40.5485 1.35926 39.9914 0.822561C39.4343 0.285866 38.6848 -0.00989671 37.9076 0.000252855" fill="#31374A"/>
</g>
<defs>
<clipPath id="clip0_528_8406">
<rect width="40.1581" height="40" fill="white" transform="translate(0.773682)"/>
</clipPath>
</defs>
</svg>
