<svg width="63" height="72" viewBox="0 0 63 72" fill="none" xmlns="http://www.w3.org/2000/svg">
<g id="Padf paper 1" clip-path="url(#clip0_171_513)">
<g id="Layer 2">
<g id="&#195;&#145;&#195;&#171;&#195;&#174;&#195;&#169; 1">
<path id="Vector" d="M10.1132 46.2692C9.68324 46.0462 9.13925 45.9362 8.51149 45.9362C8.05001 45.9235 7.58857 45.9628 7.13586 46.0532V50.4496C7.53306 50.5392 7.93996 50.5786 8.34698 50.5666C9.05346 50.5666 9.65902 50.4274 10.1162 50.1629C10.7985 49.7653 11.182 49.0861 11.182 48.1545C11.179 47.2411 10.7854 46.6174 10.1132 46.2692Z" fill="#FF5E67"/>
<path id="Vector_2" d="M17.7765 45.9363C17.2009 45.9275 16.626 45.9783 16.0608 46.0877V55.0136C16.5497 55.0803 17.0431 55.108 17.5363 55.0963C20.657 55.0963 22.3515 53.3523 22.3515 50.2993C22.3727 47.6318 20.8639 45.9363 17.7765 45.9363Z" fill="#FF5E67"/>
<path id="Vector_3" d="M33.2586 41.2786H4.2928C3.28689 41.2786 2.32218 41.6782 1.61089 42.3895C0.899598 43.1007 0.5 44.0655 0.5 45.0714L0.5 55.9795C0.5 56.9851 0.899491 57.9496 1.61059 58.6607C2.32169 59.3718 3.28615 59.7713 4.29179 59.7713H33.2576C34.2633 59.7713 35.2279 59.3718 35.9391 58.6607C36.6504 57.9497 37.0501 56.9852 37.0504 55.9795V45.0714C37.0501 44.0657 36.6506 43.1013 35.9396 42.3901C35.2286 41.6789 34.2643 41.2791 33.2586 41.2786ZM11.7664 50.5002C11.3095 50.9653 10.7399 51.3043 10.1132 51.4842C9.52837 51.6601 8.92036 51.7469 8.30966 51.7416C7.9158 51.7541 7.52183 51.7202 7.13589 51.6406V56.1702H5.6765V44.9937C6.06103 44.9301 6.51116 44.8705 7.03093 44.8302C7.4639 44.7958 7.94431 44.7757 8.47821 44.7757C9.02841 44.7693 9.57736 44.8293 10.1132 44.9543C10.68 45.077 11.2075 45.3385 11.6483 45.7153C12.269 46.2522 12.6384 47.0737 12.6384 48.08C12.6384 49.1084 12.3366 49.9128 11.7664 50.5002ZM22.2556 54.6432C21.1989 55.6999 19.4539 56.2711 17.2568 56.2711C16.3711 56.2764 15.4859 56.2313 14.6054 56.1359V45.0138C15.6327 44.8593 16.6701 44.7811 17.7089 44.7797C19.8062 44.7797 21.2989 45.2651 22.2889 46.1927C23.2982 47.1151 23.8826 48.4241 23.8826 50.2529C23.8826 52.0938 23.3093 53.6037 22.2556 54.6432ZM31.8749 46.0877H27.2454V49.8462H31.5227V51.0573H27.2454V56.1743H25.785V44.8705H31.8749V46.0877Z" fill="#FF5E67"/>
<path id="Vector_4" d="M61.3867 19.8054L42.3712 3.7693L39.3141 1.09576C39.0128 0.83248 38.6263 0.687272 38.2261 0.687012H10.1889C9.77425 0.686747 9.36364 0.768183 8.98051 0.926666C8.59738 1.08515 8.24923 1.31757 7.95596 1.61066C7.66268 1.90374 7.43004 2.25174 7.27131 2.63477C7.11258 3.0178 7.03088 3.42836 7.03088 3.84297V36.9286C7.03088 37.1063 7.10149 37.2768 7.22717 37.4024C7.35284 37.5281 7.5233 37.5987 7.70103 37.5987H9.44302C9.62075 37.5987 9.79121 37.5281 9.91688 37.4024C10.0426 37.2768 10.1132 37.1063 10.1132 36.9286V3.7693H37.5903V19.1565C37.5903 19.9935 37.9228 20.7962 38.5147 21.3881C39.1065 21.9799 39.9092 22.3125 40.7463 22.3125H59.4267V68.3953H10.1132V64.1211C10.1129 63.9435 10.0422 63.7733 9.91653 63.6479C9.79088 63.5224 9.62058 63.452 9.44302 63.452H7.70103C7.61308 63.4518 7.52595 63.469 7.44465 63.5026C7.36335 63.5362 7.28947 63.5854 7.22723 63.6476C7.16499 63.7097 7.11561 63.7835 7.08192 63.8648C7.04823 63.946 7.03088 64.0331 7.03088 64.1211V68.3216C7.03088 68.7363 7.11258 69.1468 7.27131 69.5298C7.43004 69.9129 7.66268 70.2609 7.95596 70.5539C8.24923 70.847 8.59738 71.0795 8.98051 71.2379C9.36364 71.3964 9.77425 71.4779 10.1889 71.4776H59.352C60.189 71.4776 60.9917 71.1451 61.5836 70.5532C62.1754 69.9614 62.5079 69.1587 62.5079 68.3216V22.2186C62.5081 21.759 62.4078 21.3048 62.2141 20.888C62.0205 20.4712 61.738 20.1017 61.3867 19.8054Z" fill="#31374A"/>
</g>
</g>
</g>
<defs>
<clipPath id="clip0_171_513">
<rect width="62.008" height="70.7906" fill="white" transform="translate(0.5 0.687012)"/>
</clipPath>
</defs>
</svg>
