<svg width="101" height="100" viewBox="0 0 101 100" fill="none" xmlns="http://www.w3.org/2000/svg">
<g id="team-support 1">
<path id="Vector" d="M35.1771 30.2063C35.5696 31.7833 36.462 33.1909 37.7208 34.2188C36.779 35.659 36.2753 37.3416 36.2708 39.0625V50C36.2708 50.4144 36.4354 50.8118 36.7284 51.1049C37.0215 51.3979 37.4189 51.5625 37.8333 51.5625H62.8333C63.2477 51.5625 63.6451 51.3979 63.9382 51.1049C64.2312 50.8118 64.3958 50.4144 64.3958 50V39.0625C64.3913 37.3416 63.8876 35.659 62.9458 34.2188C64.2046 33.1909 65.097 31.7833 65.4896 30.2063L65.9146 28.5047C65.9723 28.274 65.9767 28.0332 65.9274 27.8007C65.878 27.5681 65.7762 27.3498 65.6297 27.1625C65.4833 26.9752 65.296 26.8238 65.0822 26.7198C64.8683 26.6158 64.6336 26.562 64.3958 26.5625C63.9814 26.5625 63.584 26.3979 63.2909 26.1049C62.9979 25.8118 62.8333 25.4144 62.8333 25V23.7812C63.3245 23.3467 63.7179 22.8127 63.9873 22.2147C64.2567 21.6168 64.396 20.9684 64.396 20.3125C64.396 19.6566 64.2567 19.0082 63.9873 18.4103C63.7179 17.8123 63.3245 17.2783 62.8333 16.8438V14.0625C62.8333 10.7473 61.5163 7.56787 59.1721 5.22367C56.8279 2.87946 53.6485 1.5625 50.3333 1.5625C47.0181 1.5625 43.8387 2.87946 41.4945 5.22367C39.1503 7.56787 37.8333 10.7473 37.8333 14.0625V16.8438C37.3421 17.2783 36.9487 17.8123 36.6793 18.4103C36.41 19.0082 36.2706 19.6566 36.2706 20.3125C36.2706 20.9684 36.41 21.6168 36.6793 22.2147C36.9487 22.8127 37.3421 23.3467 37.8333 23.7812V25C37.8333 25.4144 37.6687 25.8118 37.3757 26.1049C37.0826 26.3979 36.6852 26.5625 36.2708 26.5625C36.0333 26.5625 35.7989 26.6167 35.5855 26.7208C35.372 26.825 35.1851 26.9765 35.039 27.1637C34.8929 27.351 34.7914 27.5691 34.7422 27.8014C34.693 28.0338 34.6975 28.2743 34.7552 28.5047L35.1771 30.2063ZM61.2708 48.4375H58.1458V43.75H55.0208V48.4375H45.6458V43.75H42.5208V48.4375H39.3958V39.0625C39.3955 38.1683 39.6026 37.2862 40.0009 36.4856C40.3992 35.6849 40.9777 34.9876 41.6911 34.4484L42.5442 39.3313C42.5808 39.543 42.6607 39.745 42.7789 39.9245C42.897 40.1041 43.051 40.2573 43.2311 40.3746C43.4112 40.4919 43.6135 40.5708 43.8255 40.6064C44.0375 40.6419 44.2545 40.6334 44.463 40.5812L50.3333 39.1109L56.2036 40.5781C56.4121 40.6303 56.6292 40.6388 56.8411 40.6033C57.0531 40.5677 57.2554 40.4888 57.4355 40.3715C57.6156 40.2542 57.7696 40.1009 57.8878 39.9214C58.0059 39.7419 58.0858 39.5399 58.1224 39.3281L58.9755 34.4453C59.6893 34.9848 60.2681 35.6826 60.6664 36.4838C61.0647 37.285 61.2716 38.1678 61.2708 39.0625V48.4375ZM54.3396 32.9812L56.0114 33.2594L55.3333 37.1391L52.6021 36.4563L54.3396 32.9812ZM50.3333 26.5625C48.6757 26.5625 47.086 25.904 45.9139 24.7319C44.7418 23.5598 44.0833 21.9701 44.0833 20.3125V17.1875H45.3927C46.8023 17.1888 48.1897 16.8356 49.4271 16.1604C50.6645 15.4852 51.7122 14.5096 52.4739 13.3234L56.5833 16.4062V20.3125C56.5833 21.9701 55.9248 23.5598 54.7527 24.7319C53.5806 25.904 51.9909 26.5625 50.3333 26.5625ZM50.3333 29.6875C50.8572 29.6844 51.3798 29.6373 51.8958 29.5469V30.8813L50.3333 34.0062L48.7708 30.8813V29.5469C49.2868 29.6373 49.8095 29.6844 50.3333 29.6875ZM46.3271 32.9812L48.0646 36.4563L45.3333 37.1391L44.6552 33.2594L46.3271 32.9812ZM62.4958 29.2844L62.4536 29.4484C62.2067 30.44 61.6229 31.3149 60.8021 31.9234C59.6635 31.0603 58.3338 30.4841 56.9255 30.2438L55.0208 29.9266V28.4187C56.4386 27.5963 57.6171 26.4178 58.4396 25H59.7083C59.7085 25.9073 59.9719 26.795 60.4667 27.5556C60.9615 28.3161 61.6664 28.9166 62.4958 29.2844ZM59.7083 20.3125V18.75C60.1227 18.75 60.5201 18.9146 60.8132 19.2076C61.1062 19.5007 61.2708 19.8981 61.2708 20.3125C61.2708 20.7269 61.1062 21.1243 60.8132 21.4174C60.5201 21.7104 60.1227 21.875 59.7083 21.875H59.5677C59.6581 21.359 59.7052 20.8363 59.7083 20.3125ZM40.9583 14.0625C40.9583 11.5761 41.946 9.19153 43.7042 7.43337C45.4623 5.67522 47.8469 4.6875 50.3333 4.6875C52.8197 4.6875 55.2043 5.67522 56.9624 7.43337C58.7206 9.19153 59.7083 11.5761 59.7083 14.0625V15.625C59.7083 15.3824 59.6518 15.1432 59.5433 14.9262C59.4349 14.7093 59.2774 14.5205 59.0833 14.375L52.8333 9.6875C52.6352 9.53885 52.4046 9.43943 52.1605 9.39742C51.9165 9.35541 51.6659 9.37202 51.4295 9.44588C51.1931 9.51975 50.9777 9.64874 50.8009 9.82224C50.6242 9.99574 50.4912 10.2088 50.413 10.4438C50.0626 11.498 49.389 12.415 48.4878 13.0646C47.5866 13.7142 46.5036 14.0634 45.3927 14.0625H42.5208C42.1064 14.0625 41.709 14.2271 41.4159 14.5201C41.1229 14.8132 40.9583 15.2106 40.9583 15.625V14.0625ZM39.3958 20.3125C39.3958 19.8981 39.5604 19.5007 39.8534 19.2076C40.1465 18.9146 40.5439 18.75 40.9583 18.75V20.3125C40.9614 20.8363 41.0085 21.359 41.0989 21.875H40.9583C40.5439 21.875 40.1465 21.7104 39.8534 21.4174C39.5604 21.1243 39.3958 20.7269 39.3958 20.3125ZM42.2271 25C43.0495 26.4178 44.228 27.5963 45.6458 28.4187V29.9266L43.7411 30.2391C42.3323 30.4809 41.0026 31.0586 39.8646 31.9234C39.0437 31.3149 38.4599 30.44 38.213 29.4484L38.1708 29.2844C39.0002 28.9166 39.7051 28.3161 40.1999 27.5556C40.6947 26.795 40.9581 25.9073 40.9583 25H42.2271Z" fill="#31374A"/>
<path id="Vector_2" d="M27.1505 77.1688L23.7708 76.7453V75.2937C25.1886 74.4713 26.3671 73.2928 27.1896 71.875H28.4583C29.4062 71.8784 30.3328 71.5934 31.1148 71.0576C31.8968 70.5219 32.4973 69.7608 32.8365 68.8757C33.1756 67.9905 33.2374 67.023 33.0135 66.1019C32.7897 65.1808 32.2909 64.3496 31.5833 63.7187V59.375C31.5817 57.9618 31.1023 56.5907 30.2229 55.4844C29.3436 54.3781 28.116 53.6017 26.7396 53.2812C26.4194 51.9047 25.643 50.677 24.5367 49.7976C23.4303 48.9182 22.0591 48.4388 20.6458 48.4375H15.9583C13.4727 48.44 11.0895 49.4285 9.33193 51.1861C7.57431 52.9437 6.58579 55.3269 6.58331 57.8125V63.7187C5.87577 64.3496 5.37693 65.1808 5.1531 66.1019C4.92926 67.023 4.99102 67.9905 5.33018 68.8757C5.66933 69.7608 6.26981 70.5219 7.05183 71.0576C7.83385 71.5934 8.76039 71.8784 9.70831 71.875H10.9771C11.7995 73.2928 12.978 74.4713 14.3958 75.2937V76.7453L11.0161 77.1688C8.49931 77.4866 6.18469 78.711 4.50583 80.6128C2.82696 82.5146 1.89902 84.9632 1.89581 87.5V96.875C1.89581 97.2894 2.06043 97.6868 2.35346 97.9799C2.64648 98.2729 3.04391 98.4375 3.45831 98.4375H34.7083C35.1227 98.4375 35.5201 98.2729 35.8132 97.9799C36.1062 97.6868 36.2708 97.2894 36.2708 96.875V87.5C36.2676 84.9632 35.3397 82.5146 33.6608 80.6128C31.9819 78.711 29.6673 77.4866 27.1505 77.1688ZM24.9708 80.0453L23.9349 82.1141C23.8268 82.331 23.7706 82.5701 23.7708 82.8125V83.9359L21.3521 83.3313L23.1114 79.8125L24.9708 80.0453ZM28.4583 68.75H28.3177C28.4081 68.234 28.4552 67.7113 28.4583 67.1875V65.625C28.8727 65.625 29.2701 65.7896 29.5632 66.0826C29.8562 66.3757 30.0208 66.7731 30.0208 67.1875C30.0208 67.6019 29.8562 67.9993 29.5632 68.2924C29.2701 68.5854 28.8727 68.75 28.4583 68.75ZM9.70831 68.75C9.29391 68.75 8.89648 68.5854 8.60346 68.2924C8.31043 67.9993 8.14581 67.6019 8.14581 67.1875C8.14581 66.7731 8.31043 66.3757 8.60346 66.0826C8.89648 65.7896 9.29391 65.625 9.70831 65.625V67.1875C9.71145 67.7113 9.75849 68.234 9.84894 68.75H9.70831ZM11.2708 60.9375C10.8564 60.9375 10.459 61.1021 10.166 61.3951C9.87293 61.6882 9.70831 62.0856 9.70831 62.5V57.8125C9.70831 56.1549 10.3668 54.5652 11.5389 53.3931C12.711 52.221 14.3007 51.5625 15.9583 51.5625H20.6458C21.4746 51.5625 22.2695 51.8917 22.8555 52.4778C23.4416 53.0638 23.7708 53.8587 23.7708 54.6875C23.7708 55.1019 23.9354 55.4993 24.2285 55.7924C24.5215 56.0854 24.9189 56.25 25.3333 56.25C26.1621 56.25 26.957 56.5792 27.543 57.1653C28.1291 57.7513 28.4583 58.5462 28.4583 59.375V62.5C28.4583 62.2574 28.4018 62.0182 28.2934 61.8012C28.1849 61.5843 28.0274 61.3955 27.8333 61.25L21.5833 56.5625C21.3852 56.4139 21.1546 56.3144 20.9105 56.2724C20.6665 56.2304 20.4159 56.247 20.1795 56.3209C19.9431 56.3947 19.7277 56.5237 19.5509 56.6972C19.3742 56.8707 19.2412 57.0838 19.163 57.3187C18.8126 58.373 18.139 59.29 17.2378 59.9396C16.3366 60.5892 15.2536 60.9384 14.1427 60.9375H11.2708ZM12.8333 64.0625H14.1427C15.5523 64.0638 16.9397 63.7106 18.1771 63.0354C19.4145 62.3602 20.4623 61.3846 21.2239 60.1984L25.3333 63.2812V67.1875C25.3333 68.8451 24.6748 70.4348 23.5027 71.6069C22.3306 72.779 20.7409 73.4375 19.0833 73.4375C17.4257 73.4375 15.836 72.779 14.6639 71.6069C13.4918 70.4348 12.8333 68.8451 12.8333 67.1875V64.0625ZM19.0833 76.5625C19.6072 76.5594 20.1298 76.5123 20.6458 76.4219V77.7563L19.0833 80.8812L17.5208 77.7563V76.4219C18.0368 76.5123 18.5595 76.5594 19.0833 76.5625ZM15.0552 79.8125L16.8146 83.3313L14.3958 83.9359V82.8125C14.396 82.5701 14.3399 82.331 14.2318 82.1141L13.1974 80.0453L15.0552 79.8125ZM33.1458 95.3125H30.0208V90.625H26.8958V95.3125H11.2708V90.625H8.14581V95.3125H5.02081V87.5C5.02415 85.9764 5.50435 84.492 6.39405 83.2551C7.28374 82.0182 8.5383 81.0909 9.98175 80.6031L11.2708 83.1813V85.9375C11.2708 86.175 11.325 86.4094 11.4292 86.6228C11.5333 86.8363 11.6848 87.0232 11.872 87.1693C12.0593 87.3154 12.2774 87.4169 12.5097 87.4661C12.7421 87.5153 12.9826 87.5108 13.213 87.4531L19.0833 85.9859L24.9536 87.4531C25.184 87.5108 25.4245 87.5153 25.6569 87.4661C25.8893 87.4169 26.1073 87.3154 26.2946 87.1693C26.4818 87.0232 26.6333 86.8363 26.7375 86.6228C26.8417 86.4094 26.8958 86.175 26.8958 85.9375V83.1813L28.1849 80.6031C29.6283 81.0909 30.8829 82.0182 31.7726 83.2551C32.6623 84.492 33.1425 85.9764 33.1458 87.5V95.3125Z" fill="#31374A"/>
<path id="Vector_3" d="M89.6505 77.1688L86.2708 76.7453V75.2937C87.6886 74.4713 88.8671 73.2928 89.6896 71.875H90.9583C91.9062 71.8784 92.8328 71.5934 93.6148 71.0576C94.3968 70.5219 94.9973 69.7608 95.3364 68.8757C95.6756 67.9905 95.7374 67.023 95.5135 66.1019C95.2897 65.1808 94.7909 64.3496 94.0833 63.7187V59.375C94.0817 57.9618 93.6023 56.5907 92.7229 55.4844C91.8436 54.3781 90.616 53.6017 89.2396 53.2812C88.9194 51.9047 88.143 50.677 87.0367 49.7976C85.9304 48.9182 84.5591 48.4388 83.1458 48.4375H78.4583C75.9727 48.44 73.5895 49.4285 71.8319 51.1861C70.0743 52.9437 69.0858 55.3269 69.0833 57.8125V63.7187C68.3758 64.3496 67.8769 65.1808 67.6531 66.1019C67.4293 67.023 67.491 67.9905 67.8302 68.8757C68.1693 69.7608 68.7698 70.5219 69.5518 71.0576C70.3339 71.5934 71.2604 71.8784 72.2083 71.875H73.4771C74.2995 73.2928 75.478 74.4713 76.8958 75.2937V76.7453L73.5161 77.1688C70.9993 77.4866 68.6847 78.711 67.0058 80.6128C65.327 82.5146 64.399 84.9632 64.3958 87.5V96.875C64.3958 97.2894 64.5604 97.6868 64.8535 97.9799C65.1465 98.2729 65.5439 98.4375 65.9583 98.4375H97.2083C97.6227 98.4375 98.0201 98.2729 98.3132 97.9799C98.6062 97.6868 98.7708 97.2894 98.7708 96.875V87.5C98.7676 84.9632 97.8397 82.5146 96.1608 80.6128C94.4819 78.711 92.1673 77.4866 89.6505 77.1688ZM87.4708 80.0453L86.4349 82.1141C86.3268 82.331 86.2706 82.5701 86.2708 82.8125V83.9359L83.8521 83.3313L85.6114 79.8125L87.4708 80.0453ZM90.9583 68.75H90.8177C90.9081 68.234 90.9552 67.7113 90.9583 67.1875V65.625C91.3727 65.625 91.7701 65.7896 92.0632 66.0826C92.3562 66.3757 92.5208 66.7731 92.5208 67.1875C92.5208 67.6019 92.3562 67.9993 92.0632 68.2924C91.7701 68.5854 91.3727 68.75 90.9583 68.75ZM72.2083 68.75C71.7939 68.75 71.3965 68.5854 71.1035 68.2924C70.8104 67.9993 70.6458 67.6019 70.6458 67.1875C70.6458 66.7731 70.8104 66.3757 71.1035 66.0826C71.3965 65.7896 71.7939 65.625 72.2083 65.625V67.1875C72.2115 67.7113 72.2585 68.234 72.3489 68.75H72.2083ZM73.7708 60.9375C73.3564 60.9375 72.959 61.1021 72.666 61.3951C72.3729 61.6882 72.2083 62.0856 72.2083 62.5V57.8125C72.2083 56.1549 72.8668 54.5652 74.0389 53.3931C75.211 52.221 76.8007 51.5625 78.4583 51.5625H83.1458C83.9746 51.5625 84.7695 51.8917 85.3555 52.4778C85.9416 53.0638 86.2708 53.8587 86.2708 54.6875C86.2708 55.1019 86.4354 55.4993 86.7285 55.7924C87.0215 56.0854 87.4189 56.25 87.8333 56.25C88.6621 56.25 89.457 56.5792 90.043 57.1653C90.6291 57.7513 90.9583 58.5462 90.9583 59.375V62.5C90.9583 62.2574 90.9018 62.0182 90.7934 61.8012C90.6849 61.5843 90.5274 61.3955 90.3333 61.25L84.0833 56.5625C83.8852 56.4139 83.6546 56.3144 83.4105 56.2724C83.1665 56.2304 82.9159 56.247 82.6795 56.3209C82.4431 56.3947 82.2277 56.5237 82.0509 56.6972C81.8742 56.8707 81.7412 57.0838 81.663 57.3187C81.3126 58.373 80.639 59.29 79.7378 59.9396C78.8366 60.5892 77.7536 60.9384 76.6427 60.9375H73.7708ZM75.3333 64.0625H76.6427C78.0523 64.0638 79.4397 63.7106 80.6771 63.0354C81.9145 62.3602 82.9623 61.3846 83.7239 60.1984L87.8333 63.2812V67.1875C87.8333 68.8451 87.1748 70.4348 86.0027 71.6069C84.8306 72.779 83.2409 73.4375 81.5833 73.4375C79.9257 73.4375 78.336 72.779 77.1639 71.6069C75.9918 70.4348 75.3333 68.8451 75.3333 67.1875V64.0625ZM81.5833 76.5625C82.1072 76.5594 82.6298 76.5123 83.1458 76.4219V77.7563L81.5833 80.8812L80.0208 77.7563V76.4219C80.5368 76.5123 81.0595 76.5594 81.5833 76.5625ZM77.5552 79.8125L79.3146 83.3313L76.8958 83.9359V82.8125C76.8985 82.5707 76.845 82.3317 76.7396 82.1141L75.7052 80.0453L77.5552 79.8125ZM95.6458 95.3125H92.5208V90.625H89.3958V95.3125H73.7708V90.625H70.6458V95.3125H67.5208V87.5C67.5242 85.9764 68.0043 84.492 68.894 83.2551C69.7837 82.0182 71.0383 81.0909 72.4817 80.6031L73.7708 83.1813V85.9375C73.7708 86.175 73.825 86.4094 73.9292 86.6228C74.0333 86.8363 74.1848 87.0232 74.372 87.1693C74.5593 87.3154 74.7774 87.4169 75.0097 87.4661C75.2421 87.5153 75.4826 87.5108 75.713 87.4531L81.5833 85.9859L87.4536 87.4531C87.684 87.5108 87.9245 87.5153 88.1569 87.4661C88.3892 87.4169 88.6073 87.3154 88.7946 87.1693C88.9818 87.0232 89.1333 86.8363 89.2375 86.6228C89.3417 86.4094 89.3958 86.175 89.3958 85.9375V83.1813L90.6849 80.6031C92.1283 81.0909 93.3829 82.0182 94.2726 83.2551C95.1623 84.492 95.6425 85.9764 95.6458 87.5V95.3125Z" fill="#31374A"/>
<path id="Vector 23" d="M54.3296 57.2675C47.6676 53.7461 43.6229 56.9899 42.4332 59.0519C40.847 60.6778 37.6033 64.0248 37.3178 64.4054C36.9609 64.8813 39.2212 74.0415 39.6971 74.7553C40.0778 75.3263 40.8074 78.4035 41.1246 79.8707C43.6625 79.3949 48.8573 78.4194 49.3331 78.3242C49.928 78.2052 59.4451 75.826 61.8243 74.7553C64.2036 73.6846 64.2036 67.6175 63.2519 62.9779C62.3002 58.3383 62.6571 61.6692 54.3296 57.2675Z" fill="#A279E5"/>
<path id="Vector_4" d="M50.3333 54.6875C41.7177 54.6875 34.7083 60.2953 34.7083 67.1875C34.7757 69.1522 35.3362 71.0684 36.3383 72.7596C37.3404 74.4509 38.7518 75.8629 40.4427 76.8656L39.4427 80.8703C39.3679 81.1608 39.3784 81.4666 39.4727 81.7514C39.5671 82.0361 39.7414 82.2876 39.9749 82.4759C40.2083 82.6642 40.4911 82.7814 40.7893 82.8134C41.0875 82.8453 41.3887 82.7908 41.6568 82.6563L47.888 79.5313C48.699 79.6343 49.5157 79.6865 50.3333 79.6875C58.9489 79.6875 65.9583 74.0797 65.9583 67.1875C65.9583 60.2953 58.9489 54.6875 50.3333 54.6875ZM50.3333 76.5625C49.5047 76.5614 48.6773 76.4977 47.8583 76.3719C47.538 76.3229 47.2104 76.3748 46.9208 76.5203L43.2958 78.3328L43.7536 76.5016C43.8373 76.1667 43.8077 75.8135 43.6695 75.4972C43.5313 75.1809 43.2922 74.9192 42.9896 74.7531C41.5293 74.0721 40.2797 73.01 39.3723 71.6785C38.4648 70.3471 37.9332 68.7956 37.8333 67.1875C37.8333 62.0172 43.4411 57.8125 50.3333 57.8125C57.2255 57.8125 62.8333 62.0172 62.8333 67.1875C62.8333 72.3578 57.2255 76.5625 50.3333 76.5625Z" fill="#31374A"/>
<path id="Vector_5" d="M45.6458 65.625H42.5208V68.75H45.6458V65.625Z" fill="#31374A"/>
<path id="Vector_6" d="M51.8958 65.625H48.7708V68.75H51.8958V65.625Z" fill="#31374A"/>
<path id="Vector_7" d="M58.1458 65.625H55.0208V68.75H58.1458V65.625Z" fill="#31374A"/>
<path id="Vector_8" d="M17.5208 43.75H23.7708V40.625H21.2927L29.563 32.3546L27.3536 30.1453L19.0833 38.4156V35.9375H15.9583V42.1875C15.9583 42.6019 16.1229 42.9993 16.416 43.2923C16.709 43.5853 17.1064 43.75 17.5208 43.75Z" fill="#31374A"/>
<path id="Vector_9" d="M73.7708 35.0219L82.0411 43.2922L84.2505 41.0828L75.9802 32.8125H78.4583V29.6875H72.2083C71.7939 29.6875 71.3965 29.8521 71.1035 30.1451C70.8104 30.4382 70.6458 30.8356 70.6458 31.25V37.5H73.7708V35.0219Z" fill="#31374A"/>
<path id="Vector_10" d="M56.1255 84.8328L53.9161 87.0421L55.9364 89.0625H40.9583V92.1875H55.9364L53.9161 94.2078L56.1255 96.4171L60.813 91.7296C61.1059 91.4366 61.2705 91.0393 61.2705 90.625C61.2705 90.2106 61.1059 89.8133 60.813 89.5203L56.1255 84.8328Z" fill="#31374A"/>
</g>
</svg>
