<svg width="50" height="40" viewBox="0 0 50 40" fill="none" xmlns="http://www.w3.org/2000/svg">
<g id="Twitter  svg" clip-path="url(#clip0_528_8408)">
<g id="Logo_1_">
<path id="white_background" d="M44.3674 10.0572C44.3967 10.4827 44.3967 10.9082 44.3967 11.3376C44.3967 24.4219 34.4552 39.5121 16.2767 39.5121V39.5043C10.9068 39.5121 5.64833 37.9709 1.12769 35.065C1.90852 35.1592 2.69328 35.2062 3.47999 35.2082C7.93018 35.2121 12.2532 33.716 15.7542 30.9611C11.5252 30.8807 7.81667 28.118 6.52115 24.0847C8.00259 24.3709 9.52904 24.3121 10.9831 23.9141C6.37242 22.9807 3.05532 18.9219 3.05532 14.2082C3.05532 14.165 3.05532 14.1239 3.05532 14.0827C4.42913 14.8494 5.96732 15.2749 7.54074 15.3219C3.19818 12.4141 1.8596 6.62583 4.48197 2.10034C9.49969 8.28662 16.903 12.0474 24.8503 12.4454C24.0538 9.00622 25.1419 5.4023 27.7095 2.98466C31.69 -0.764364 37.9504 -0.572207 41.6922 3.41407C43.9055 2.97681 46.0269 2.16309 47.9682 1.01015C47.2304 3.3023 45.6864 5.24936 43.6237 6.48662C45.5827 6.25524 47.4966 5.72975 49.299 4.92779C47.9721 6.91995 46.3009 8.65524 44.3674 10.0572Z" fill="#31374A"/>
</g>
</g>
<defs>
<clipPath id="clip0_528_8408">
<rect width="48.5333" height="40" fill="white" transform="translate(0.931885)"/>
</clipPath>
</defs>
</svg>
